<?xml version="1.0" encoding="UTF-8" standalone="no"?>
<svg
  xmlns="http://www.w3.org/2000/svg"
  xmlns:xlink="http://www.w3.org/1999/xlink"
  width="30"
  height="30">   
   
  <style type="text/css">
   <![CDATA[
    .str0 {stroke:#AAA9A9;stroke-width:0.03}
    .str1 {stroke:#969594;stroke-width:0.1;stroke-dasharray:0.3 0.2}   
    .fil0 {fill:none}   
    .fil1 {fill:#1F1A17;fill-rule:nonzero}
    .fil5 {fill:#1F1A17}
    .fnt0 {font-weight:normal;font-size:1;font-family:'Arial'}
    .fnt1 {font-style:italic;font-weight:normal;font-size:1;font-family:'Times New Roman'}
    .fnt2 {font-weight:normal;font-size:1;font-family:'Arial'}
   ]]>
  </style>   
   
  <defs>    
    <g id="reference-frame">
      <line class="fil0 str0" x1="-40" y1="0" x2="40" y2= "0" />
      <text x="9.64557" y="1" class="fil5 fnt1">r</text>
      <path class="fil1" d="M9.52151 0.1015l-9.50552 0.00822 0 -0.14056 9.50552 -0.00822 0 0.14056zm0.49448 -0.0707l-0.98356 0.42253 0.01275 -0.02637 0.01192 -0.02636 0.01109 -0.02637 0.01027 -0.02636 0.00945 -0.02636 0.00863 -0.02637 0.0078 -0.02636 0.00698 -0.02636 0.00615 -0.02636 0.00533 -0.02636 0.00451 -0.02636 0.00368 -0.02636 0.00286 -0.02635 0.00204 -0.02636 0.00121 -0.02636 0.00039 -0.02635 -0.00043 -0.02636 -0.00126 -0.02635 -0.00208 -0.02635 -0.00291 -0.02636 -0.00373 -0.02635 -0.00455 -0.02635 -0.00538 -0.02635 -0.0062 -0.02635 -0.00702 -0.02635 -0.00785 -0.02635 -0.00867 -0.02634 -0.00949 -0.02635 -0.01032 -0.02635 -0.01114 -0.02634 -0.01197 -0.02635 -0.01278 -0.02634 0 0 0.98428 0.42083z"/>            
    </g>
    <circle id="pA" r="0.3" stroke="black" stroke-width="0.05"/>
    <circle id="pE" cx="10.5" r="0.3" stroke="black" stroke-width="0.05"/>    
    <image id="pC" xlink:href="person.png" x="-1.5" y="-1.5" width="3" height="3"/>
  </defs>
    
  
  <image xlink:href="background.jpg" width="30" height="30"/>
  <line id="rLine" class="fil0 str1"/>
  
  
        
  <g id="rframe">
    <use id="frame" xlink:href="#reference-frame" x="10" y="20" />
    <use id="ptoA" xlink:href="#pA" x="10" y="20" />
    <use id="ptoE" xlink:href="#pE" x="10" y="20" />
  </g>  

    <text id="y" x="-1.41471" y="-7.70085" text-anchor="middle" class="fil5 fnt0">8.0</text>
    <text id="x" x="8" y="1" text-anchor="middle" class="fil5 fnt0">8.0</text>

  
  <use id="ptoC" xlink:href="#pC" x="18" y="12" />
  <text id="xy-label" class="fil5 fnt0" x="18.5" y="11.5">(8.0,8.0)</text>

  <text id="ptoA-tip" x="2" y="28" class="fil5 fnt2" opacity="0">Arraste para deslocar</text>
  <text id="ptoE-tip" x="2" y="28" class="fil5 fnt2" opacity="0">Arraste para girar</text>
  
  <path id="arc" d="M15,20 A5,5,0,0,0,10,15" stroke="black" stroke-width="0.1" fill="none"/>
</svg>