<?xml version="1.0" encoding="UTF-8" standalone="no"?>
<svg
  xmlns="http://www.w3.org/2000/svg"
  xmlns:xlink="http://www.w3.org/1999/xlink"
  width="100%"
  height="100%">
   
  <defs>    
    <g id="reference-frame">      
        <path d="M9.99909 0.00766l-0.49392 0.21168 0 0 0.00641 -0.01323 0.00599 -0.01323 0.00558 -0.01323 0.00517 -0.01323 0.00476 -0.01323 0.00434 -0.01323 0.00393 -0.01323 0.00351 -0.01323 0.0031 -0.01323 0.00269 -0.01323 0.00227 -0.01323 0.00186 -0.01323 0.00145 -0.01323 0.00103 -0.01323 0.00062 -0.01323 0.00021 -0.01323 -0.00021 -0.01323 -0.00062 -0.01323 -0.00103 -0.01323 -0.00145 -0.01323 -0.00186 -0.01323 -0.00227 -0.01323 -0.00269 -0.01323 -0.0031 -0.01323 -0.00351 -0.01323 -0.00393 -0.01323 -0.00434 -0.01323 -0.00476 -0.01323 -0.00517 -0.01323 -0.00558 -0.01323 -0.00599 -0.01323 -0.00641 -0.01323 0.49392 0.21168zm-10.0353 0l0.03528 -0.03528 9.75177 0 0 0.07056 -9.75177 0 -0.03528 -0.03528zm0.03528 0.03528l-0.03528 0 0 -0.03528 0.03528 0.03528zm0.03528 -9.78705l0 9.75177 -0.07056 0 0 -9.75177 0.07056 0zm-0.03528 -0.24823l0.21168 0.49392 -0.01323 -0.00641 -0.01323 -0.00599 -0.01323 -0.00558 -0.01323 -0.00517 -0.01323 -0.00476 -0.01323 -0.00434 -0.01323 -0.00393 -0.01323 -0.00351 -0.01323 -0.0031 -0.01323 -0.00269 -0.01323 -0.00227 -0.01323 -0.00186 -0.01323 -0.00145 -0.01323 -0.00103 -0.01323 -0.00062 -0.01323 -0.00021 -0.01323 0.00021 -0.01323 0.00062 -0.01323 0.00103 -0.01323 0.00145 -0.01323 0.00186 -0.01323 0.00227 -0.01323 0.00269 -0.01323 0.0031 -0.01323 0.00351 -0.01323 0.00393 -0.01323 0.00434 -0.01323 0.00476 -0.01323 0.00517 -0.01323 0.00558 -0.01323 0.00599 -0.01323 0.00641 0 0 0.21168 -0.49392z"/>
        <path d="M9.41446 0.96656l0.03641 -0.07578c0.01016,0.00579 0.02173,0.00875 0.03471,0.00875 0.04191,0 0.09441,-0.03767 0.15748,-0.11317l0.02484 -0.0302 -0.05616 -0.13236c-0.01411,-0.0333 -0.02794,-0.04995 -0.04135,-0.04995 -0.01665,0 -0.04163,0.02243 -0.07535,0.06745l0.01086 -0.05419c0.04022,-0.05292 0.07465,-0.07945 0.1033,-0.07945 0.02681,0 0.05178,0.02667 0.07521,0.08016l0.04713 0.10795 0.02695 -0.03429c0.08044,-0.10259 0.14648,-0.15382 0.19798,-0.15382 0.01383,0 0.02794,0.00452 0.04262,0.01369l-0.04262 0.07522c-0.01129,-0.00692 -0.02215,-0.01031 -0.03259,-0.01031 -0.04572,0 -0.09949,0.03768 -0.1613,0.11318l-0.01989 0.02398 0.06209 0.14436c0.01425,0.03443 0.02864,0.05165 0.04304,0.05165 0.01947,0 0.04685,-0.0206 0.08184,-0.06167l-0.01002 0.04967c-0.04205,0.04629 -0.07944,0.06943 -0.11204,0.06943 -0.03105,0 -0.0563,-0.02272 -0.07564,-0.06816l-0.05334 -0.12657 -0.03344 0.04261c-0.07973,0.10146 -0.14196,0.15212 -0.18683,0.15212 -0.01143,0 -0.02597,-0.00339 -0.04389,-0.0103z"/>
        <path d="M-0.97853 -9.27013l0.05715 -0.05785c0.02724,0.01594 0.05645,0.02399 0.08763,0.02399 0.03838,0 0.06816,-0.01369 0.08947,-0.04092 0.02144,-0.02724 0.04078,-0.07691 0.05813,-0.14888l0.06407 -0.26416 -0.00536 0c-0.03218,0.06562 -0.06506,0.11938 -0.09836,0.16143 -0.03344,0.04205 -0.05969,0.06308 -0.07902,0.06308 -0.02004,0 -0.03514,-0.01087 -0.0453,-0.03246 -0.01002,-0.02159 -0.01877,-0.0618 -0.02624,-0.12051l-0.01976 -0.16072c-0.00748,-0.05955 -0.02004,-0.08932 -0.03768,-0.08932 -0.01707,0 -0.04473,0.02413 -0.08311,0.07224l0.00832 -0.04219c0.04318,-0.05729 0.08411,-0.08594 0.12277,-0.08594 0.02201,0 0.03768,0.00988 0.04713,0.02978 0.00932,0.0199 0.01821,0.06167 0.02639,0.12531l0.01736 0.138c0.00635,0.04939 0.01693,0.07409 0.03146,0.07409 0.01708,0 0.04121,-0.02385 0.07239,-0.07155 0.00551,-0.00875 0.03627,-0.05997 0.09215,-0.15338l0.03147 -0.13237 0.08805 -0.00494 -0.03683 0.12898 -0.07239 0.29394c-0.02441,0.09948 -0.0635,0.1754 -0.11712,0.22775 -0.05362,0.05235 -0.11924,0.0786 -0.19699,0.0786 -0.02949,0 -0.05475,-0.00395 -0.07578,-0.012z"/>        
        <line x1="-50" y1="0" x2="+50" y2="0" stroke="black" stroke-width="0.01"/>
        <line x1="0" y1="-50" x2="0" y2="+50" stroke="black" stroke-width="0.01"/>                   
    </g>
    <circle id="translation-handle" r="0.5" fill="red" stroke="black" stroke-width="0.05"/>
    <circle id="rotation-handle" cx="10.5" r="0.5" fill="yellow" stroke="black" stroke-width="0.05"/>
    <circle id="sample-ref" r="0.5" fill="tan" stroke="none"/>          
  </defs>
  
  
  <rect id="bkg" width="40" height="40" fill="white"/>
  
  
  <g id="rframe">
    <use xlink:href="#reference-frame" x="20" y="20" id="frame"/>
    <use xlink:href="#translation-handle" x="20" y="20" id="thandle"/>
    <use xlink:href="#rotation-handle" x="20" y="20" id="rhandle"/>
    <text id="x" text-anchor="middle" x="25" y="21" font-size="1">0.0</text>
    <text id="y" text-anchor="end" x="19" y="15" font-size="1">0.0</text>
  </g>
  
  <use xlink:href="#sample-ref" x="30" y="10" id="sample"/>
  
  
</svg>