<?xml version="1.0" encoding="UTF-8" standalone="no"?>
<svg
  xmlns="http://www.w3.org/2000/svg"
  xmlns:xlink="http://www.w3.org/1999/xlink"
  width="100%"
  height="100%"
  viewBox="0 0 25 25">
  
  <defs>
    <style type="text/css">
     
      .str1 {stroke:#1F1A17;stroke-width:0.00762}
      .str2 {stroke:#DA251D;stroke-width:0.00762}
      .str0 {stroke:#605D5C;stroke-width:0.03527;stroke-dasharray:0.176350 0.105810}
      .fil0 {fill:none}
      .fil3 {fill:#1F1A17}
      .fil5 {fill:#00923F;fill-rule:nonzero}
      .fil4 {fill:#0093DD;fill-rule:nonzero}
      .fil2 {fill:#1F1A17;fill-rule:nonzero}
      .fil1 {fill:#DA251D;fill-rule:nonzero}
      .fil6 {fill:black}
      .fnt1 {font-weight:normal;font-size:0.7;font-family:'Times New Roman'}
    </style>
  
    <!-- Este círculo serve para definir a posição dos rótulos. Deve haver uma forma melhor de fazer isso, mas por enquanto não sei -->
    <circle id="label.pos.def" r="0" class="fil3 str1"/>
    
    <!-- O toldo do carrossel -->
    <image id="background.def" xlink:href="background.jpg" x="-10" y="-10" width="20" height="20" opacity="0.2"/> 
      
    <!-- A base {\hat r,\hat \phi} e as coordenadas das posições dos rótulos \hat r e \hat \phi -->
    <g id="base.group.def">
      <path class="fil2" d="M-0.06913 1e-005l0.10584 0 -7e-005 0.00272 -0.0002 0.00269 -0.00034 0.00265 -0.00047 0.0026 -0.00059 0.00256 -0.00071 0.00251 -0.00083 0.00246 -0.00095 0.00241 -0.00106 0.00234 -0.00117 0.00228 -0.00127 0.00222 -0.00138 0.00215 -0.00148 0.00207 -0.00157 0.002 -0.00166 0.00192 -0.00175 0.00184 -0.00184 0.00175 -0.00192 0.00166 -0.002 0.00157 -0.00207 0.00148 -0.00215 0.00138 -0.00222 0.00127 -0.00228 0.00117 -0.00234 0.00106 -0.00241 0.00095 -0.00246 0.00083 -0.00251 0.00071 -0.00256 0.00059 -0.0026 0.00047 -0.00265 0.00034 -0.00269 0.0002 -0.00272 7e-005 -0.00272 -7e-005 -0.00269 -0.0002 -0.00265 -0.00034 -0.0026 -0.00047 -0.00256 -0.00059 -0.00251 -0.00071 -0.00246 -0.00083 -0.00241 -0.00095 -0.00234 -0.00106 -0.00228 -0.00117 -0.00222 -0.00127 -0.00215 -0.00138 -0.00207 -0.00148 -0.002 -0.00157 -0.00192 -0.00166 -0.00184 -0.00175 -0.00175 -0.00184 -0.00166 -0.00192 -0.00157 -0.002 -0.00148 -0.00207 -0.00138 -0.00215 -0.00127 -0.00222 -0.00117 -0.00228 -0.00106 -0.00234 -0.00095 -0.00241 -0.00083 -0.00246 -0.00071 -0.00251 -0.00059 -0.00256 -0.00047 -0.0026 -0.00034 -0.00265 -0.0002 -0.00269 -7e-005 -0.00272zm0.10584 -2.20733l0 2.20733 -0.10584 0 0 -2.20733 0.10584 0zm-0.32959 0.04361l0.27667 -0.50295 0.27667 0.50295 -0.55334 0zm0.32959 -0.04361l-0.10584 0 7e-005 -0.00272 0.0002 -0.00269 0.00034 -0.00265 0.00047 -0.0026 0.00059 -0.00256 0.00071 -0.00251 0.00083 -0.00246 0.00095 -0.00241 0.00106 -0.00234 0.00117 -0.00228 0.00127 -0.00222 0.00138 -0.00215 0.00148 -0.00207 0.00157 -0.002 0.00166 -0.00192 0.00175 -0.00184 0.00184 -0.00175 0.00192 -0.00166 0.002 -0.00157 0.00207 -0.00148 0.00215 -0.00138 0.00222 -0.00127 0.00228 -0.00117 0.00234 -0.00106 0.00241 -0.00095 0.00246 -0.00083 0.00251 -0.00071 0.00256 -0.00059 0.0026 -0.00047 0.00265 -0.00034 0.00269 -0.0002 0.00272 -7e-005 0.00272 7e-005 0.00269 0.0002 0.00265 0.00034 0.0026 0.00047 0.00256 0.00059 0.00251 0.00071 0.00246 0.00083 0.00241 0.00095 0.00234 0.00106 0.00228 0.00117 0.00222 0.00127 0.00215 0.00138 0.00207 0.00148 0.002 0.00157 0.00192 0.00166 0.00184 0.00175 0.00175 0.00184 0.00166 0.00192 0.00157 0.002 0.00148 0.00207 0.00138 0.00215 0.00127 0.00222 0.00117 0.00228 0.00106 0.00234 0.00095 0.00241 0.00083 0.00246 0.00071 0.00251 0.00059 0.00256 0.00047 0.0026 0.00034 0.00265 0.0002 0.00269 7e-005 0.00272zm-0.05292 2.15441l0 0.10584 -0.00272 -7e-005 -0.00269 -0.0002 -0.00265 -0.00034 -0.0026 -0.00047 -0.00256 -0.00059 -0.00251 -0.00071 -0.00246 -0.00083 -0.00241 -0.00095 -0.00234 -0.00106 -0.00228 -0.00117 -0.00222 -0.00127 -0.00215 -0.00138 -0.00207 -0.00148 -0.002 -0.00157 -0.00192 -0.00166 -0.00184 -0.00175 -0.00175 -0.00184 -0.00166 -0.00192 -0.00157 -0.002 -0.00148 -0.00207 -0.00138 -0.00215 -0.00127 -0.00222 -0.00117 -0.00228 -0.00106 -0.00234 -0.00095 -0.00241 -0.00083 -0.00246 -0.00071 -0.00251 -0.00059 -0.00256 -0.00047 -0.0026 -0.00034 -0.00265 -0.0002 -0.00269 -7e-005 -0.00272 7e-005 -0.00272 0.0002 -0.00269 0.00034 -0.00265 0.00047 -0.0026 0.00059 -0.00256 0.00071 -0.00251 0.00083 -0.00246 0.00095 -0.00241 0.00106 -0.00234 0.00117 -0.00228 0.00127 -0.00222 0.00138 -0.00215 0.00148 -0.00207 0.00157 -0.002 0.00166 -0.00192 0.00175 -0.00184 0.00184 -0.00175 0.00192 -0.00166 0.002 -0.00157 0.00207 -0.00148 0.00215 -0.00138 0.00222 -0.00127 0.00228 -0.00117 0.00234 -0.00106 0.00241 -0.00095 0.00246 -0.00083 0.00251 -0.00071 0.00256 -0.00059 0.0026 -0.00047 0.00265 -0.00034 0.00269 -0.0002 0.00272 -7e-005zm2.18967 0.10584l-2.18967 0 0 -0.10584 2.18967 0 0 0.10584zm-0.04361 -0.32959l0.50295 0.27667 -0.50295 0.27667 0 -0.55334zm0.04361 0.32959l0 -0.10584 0.00272 7e-005 0.00269 0.0002 0.00265 0.00034 0.0026 0.00047 0.00256 0.00059 0.00251 0.00071 0.00246 0.00083 0.00241 0.00095 0.00234 0.00106 0.00228 0.00117 0.00222 0.00127 0.00215 0.00138 0.00207 0.00148 0.002 0.00157 0.00192 0.00166 0.00184 0.00175 0.00175 0.00184 0.00166 0.00192 0.00157 0.002 0.00148 0.00207 0.00138 0.00215 0.00127 0.00222 0.00117 0.00228 0.00106 0.00234 0.00095 0.00241 0.00083 0.00246 0.00071 0.00251 0.00059 0.00256 0.00047 0.0026 0.00034 0.00265 0.0002 0.00269 7e-005 0.00272 -7e-005 0.00272 -0.0002 0.00269 -0.00034 0.00265 -0.00047 0.0026 -0.00059 0.00256 -0.00071 0.00251 -0.00083 0.00246 -0.00095 0.00241 -0.00106 0.00234 -0.00117 0.00228 -0.00127 0.00222 -0.00138 0.00215 -0.00148 0.00207 -0.00157 0.002 -0.00166 0.00192 -0.00175 0.00184 -0.00184 0.00175 -0.00192 0.00166 -0.002 0.00157 -0.00207 0.00148 -0.00215 0.00138 -0.00222 0.00127 -0.00228 0.00117 -0.00234 0.00106 -0.00241 0.00095 -0.00246 0.00083 -0.00251 0.00071 -0.00256 0.00059 -0.0026 0.00047 -0.00265 0.00034 -0.00269 0.0002 -0.00272 7e-005z" />
      <use id="r.hat.label.pos" xlink:href="#label.pos.def" x="3" y="-0.5"/>
      <use id="p.hat.label.pos" xlink:href="#label.pos.def" x="-0.5" y="-3"/>
      <circle r="0.3" stroke="none" fill="black"/>
    </g>  

    <!-- Vetor r (posição) e a posição do rótulo -->
    <g id="r.group.def">
      <path d="M-0.01621 -0.05291l0 0.10584 -0.00272 -7e-005 -0.00269 -0.0002 -0.00265 -0.00034 -0.0026 -0.00047 -0.00256 -0.00059 -0.00251 -0.00071 -0.00246 -0.00083 -0.00241 -0.00095 -0.00234 -0.00106 -0.00228 -0.00117 -0.00222 -0.00127 -0.00215 -0.00138 -0.00207 -0.00148 -0.002 -0.00157 -0.00192 -0.00166 -0.00184 -0.00175 -0.00175 -0.00184 -0.00166 -0.00192 -0.00157 -0.002 -0.00148 -0.00207 -0.00138 -0.00215 -0.00127 -0.00222 -0.00117 -0.00228 -0.00106 -0.00234 -0.00095 -0.00241 -0.00083 -0.00246 -0.00071 -0.00251 -0.00059 -0.00256 -0.00047 -0.0026 -0.00034 -0.00265 -0.0002 -0.00269 -7e-005 -0.00272 7e-005 -0.00272 0.0002 -0.00269 0.00034 -0.00265 0.00047 -0.0026 0.00059 -0.00256 0.00071 -0.00251 0.00083 -0.00246 0.00095 -0.00241 0.00106 -0.00234 0.00117 -0.00228 0.00127 -0.00222 0.00138 -0.00215 0.00148 -0.00207 0.00157 -0.002 0.00166 -0.00192 0.00175 -0.00184 0.00184 -0.00175 0.00192 -0.00166 0.002 -0.00157 0.00207 -0.00148 0.00215 -0.00138 0.00222 -0.00127 0.00228 -0.00117 0.00234 -0.00106 0.00241 -0.00095 0.00246 -0.00083 0.00251 -0.00071 0.00256 -0.00059 0.0026 -0.00047 0.00265 -0.00034 0.00269 -0.0002 0.00272 -7e-005zm8.81219 0.10584l-8.81219 0 0 -0.10584 8.81219 0 0 0.10584zm-0.04361 -0.32959l0.50295 0.27667 -0.50295 0.27667 0 -0.55334zm0.04361 0.32959l0 -0.10584 0.00272 7e-005 0.00269 0.0002 0.00265 0.00034 0.0026 0.00047 0.00256 0.00059 0.00251 0.00071 0.00246 0.00083 0.00241 0.00095 0.00234 0.00106 0.00228 0.00117 0.00222 0.00127 0.00215 0.00138 0.00207 0.00148 0.002 0.00157 0.00192 0.00166 0.00184 0.00175 0.00175 0.00184 0.00166 0.00192 0.00157 0.002 0.00148 0.00207 0.00138 0.00215 0.00127 0.00222 0.00117 0.00228 0.00106 0.00234 0.00095 0.00241 0.00083 0.00246 0.00071 0.00251 0.00059 0.00256 0.00047 0.0026 0.00034 0.00265 0.0002 0.00269 7e-005 0.00272 -7e-005 0.00272 -0.0002 0.00269 -0.00034 0.00265 -0.00047 0.0026 -0.00059 0.00256 -0.00071 0.00251 -0.00083 0.00246 -0.00095 0.00241 -0.00106 0.00234 -0.00117 0.00228 -0.00127 0.00222 -0.00138 0.00215 -0.00148 0.00207 -0.00157 0.002 -0.00166 0.00192 -0.00175 0.00184 -0.00184 0.00175 -0.00192 0.00166 -0.002 0.00157 -0.00207 0.00148 -0.00215 0.00138 -0.00222 0.00127 -0.00228 0.00117 -0.00234 0.00106 -0.00241 0.00095 -0.00246 0.00083 -0.00251 0.00071 -0.00256 0.00059 -0.0026 0.00047 -0.00265 0.00034 -0.00269 0.0002 -0.00272 7e-005z" class="fil1" />
      <use id="r.label.pos" xlink:href="#label.pos.def" x="4.95" y="0.68"/>
    </g>
  
    <!-- Vetor v (velocidade) e a posição do rótulo -->
    <g id="v.group.def" transform="scale(1)">
      <use id="v.label.pos" xlink:href="#label.pos.def" y="-5.95" x="0"/>
      <line y1="0" x1="-0.01621" x2="-0.01621" y2="-0.44849" class="fil0 str2" />
      <path class="fil4" d="M-0.06913 -0.44849l0.10584 0 -7e-005 0.00272 -0.0002 0.00269 -0.00034 0.00265 -0.00047 0.0026 -0.00059 0.00256 -0.00071 0.00251 -0.00083 0.00246 -0.00095 0.00241 -0.00106 0.00234 -0.00117 0.00228 -0.00127 0.00222 -0.00138 0.00215 -0.00148 0.00207 -0.00157 0.002 -0.00166 0.00192 -0.00175 0.00184 -0.00184 0.00175 -0.00192 0.00166 -0.002 0.00157 -0.00207 0.00148 -0.00215 0.00138 -0.00222 0.00127 -0.00228 0.00117 -0.00234 0.00106 -0.00241 0.00095 -0.00246 0.00083 -0.00251 0.00071 -0.00256 0.00059 -0.0026 0.00047 -0.00265 0.00034 -0.00269 0.0002 -0.00272 7e-005 -0.00272 -7e-005 -0.00269 -0.0002 -0.00265 -0.00034 -0.0026 -0.00047 -0.00256 -0.00059 -0.00251 -0.00071 -0.00246 -0.00083 -0.00241 -0.00095 -0.00234 -0.00106 -0.00228 -0.00117 -0.00222 -0.00127 -0.00215 -0.00138 -0.00207 -0.00148 -0.002 -0.00157 -0.00192 -0.00166 -0.00184 -0.00175 -0.00175 -0.00184 -0.00166 -0.00192 -0.00157 -0.002 -0.00148 -0.00207 -0.00138 -0.00215 -0.00127 -0.00222 -0.00117 -0.00228 -0.00106 -0.00234 -0.00095 -0.00241 -0.00083 -0.00246 -0.00071 -0.00251 -0.00059 -0.00256 -0.00047 -0.0026 -0.00034 -0.00265 -0.0002 -0.00269 -7e-005 -0.00272zm0.10584 -4.20732l0 4.20732 -0.10584 0 0 -4.20732 0.10584 0zm-0.32959 0.04361l0.27667 -0.50295 0.27667 0.50295 -0.55334 0zm0.32959 -0.04361l-0.10584 0 7e-005 -0.00272 0.0002 -0.00269 0.00034 -0.00265 0.00047 -0.0026 0.00059 -0.00256 0.00071 -0.00251 0.00083 -0.00246 0.00095 -0.00241 0.00106 -0.00234 0.00117 -0.00228 0.00127 -0.00222 0.00138 -0.00215 0.00148 -0.00207 0.00157 -0.002 0.00166 -0.00192 0.00175 -0.00184 0.00184 -0.00175 0.00192 -0.00166 0.002 -0.00157 0.00207 -0.00148 0.00215 -0.00138 0.00222 -0.00127 0.00228 -0.00117 0.00234 -0.00106 0.00241 -0.00095 0.00246 -0.00083 0.00251 -0.00071 0.00256 -0.00059 0.0026 -0.00047 0.00265 -0.00034 0.00269 -0.0002 0.00272 -7e-005 0.00272 7e-005 0.00269 0.0002 0.00265 0.00034 0.0026 0.00047 0.00256 0.00059 0.00251 0.00071 0.00246 0.00083 0.00241 0.00095 0.00234 0.00106 0.00228 0.00117 0.00222 0.00127 0.00215 0.00138 0.00207 0.00148 0.002 0.00157 0.00192 0.00166 0.00184 0.00175 0.00175 0.00184 0.00166 0.00192 0.00157 0.002 0.00148 0.00207 0.00138 0.00215 0.00127 0.00222 0.00117 0.00228 0.00106 0.00234 0.00095 0.00241 0.00083 0.00246 0.00071 0.00251 0.00059 0.00256 0.00047 0.0026 0.00034 0.00265 0.0002 0.00269 7e-005 0.00272z" />
    </g>    
    
    <!-- Vetor a (aceleração) e a posição do rótulo -->
    <g id="a.group.def" transform="scale(1)">
      <use id="a.label.pos" xlink:href="#label.pos.def" x="-2.23" y="-0.67"/>
      <line x1="-0.01621" y1="0" x2="-0.46471" y2="0" class="fil0 str2"/>
      <path class="fil5" d="M-0.46471 0.05293l0 -0.10584 0.00272 7e-005 0.00269 0.0002 0.00265 0.00034 0.0026 0.00047 0.00256 0.00059 0.00251 0.00071 0.00246 0.00083 0.00241 0.00095 0.00234 0.00106 0.00228 0.00117 0.00222 0.00127 0.00215 0.00138 0.00207 0.00148 0.002 0.00157 0.00192 0.00166 0.00184 0.00175 0.00175 0.00184 0.00166 0.00192 0.00157 0.002 0.00148 0.00207 0.00138 0.00215 0.00127 0.00222 0.00117 0.00228 0.00106 0.00234 0.00095 0.00241 0.00083 0.00246 0.00071 0.00251 0.00059 0.00256 0.00047 0.0026 0.00034 0.00265 0.0002 0.00269 7e-005 0.00272 -7e-005 0.00272 -0.0002 0.00269 -0.00034 0.00265 -0.00047 0.0026 -0.00059 0.00256 -0.00071 0.00251 -0.00083 0.00246 -0.00095 0.00241 -0.00106 0.00234 -0.00117 0.00228 -0.00127 0.00222 -0.00138 0.00215 -0.00148 0.00207 -0.00157 0.002 -0.00166 0.00192 -0.00175 0.00184 -0.00184 0.00175 -0.00192 0.00166 -0.002 0.00157 -0.00207 0.00148 -0.00215 0.00138 -0.00222 0.00127 -0.00228 0.00117 -0.00234 0.00106 -0.00241 0.00095 -0.00246 0.00083 -0.00251 0.00071 -0.00256 0.00059 -0.0026 0.00047 -0.00265 0.00034 -0.00269 0.0002 -0.00272 7e-005zm-3.51417 -0.10584l3.51417 0 0 0.10584 -3.51417 0 0 -0.10584zm0.04361 0.32959l-0.50295 -0.27667 0.50295 -0.27667 0 0.55334zm-0.04361 -0.32959l0 0.10584 -0.00272 -7e-005 -0.00269 -0.0002 -0.00265 -0.00034 -0.0026 -0.00047 -0.00256 -0.00059 -0.00251 -0.00071 -0.00246 -0.00083 -0.00241 -0.00095 -0.00234 -0.00106 -0.00228 -0.00117 -0.00222 -0.00127 -0.00215 -0.00138 -0.00207 -0.00148 -0.002 -0.00157 -0.00192 -0.00166 -0.00184 -0.00175 -0.00175 -0.00184 -0.00166 -0.00192 -0.00157 -0.002 -0.00148 -0.00207 -0.00138 -0.00215 -0.00127 -0.00222 -0.00117 -0.00228 -0.00106 -0.00234 -0.00095 -0.00241 -0.00083 -0.00246 -0.00071 -0.00251 -0.00059 -0.00256 -0.00047 -0.0026 -0.00034 -0.00265 -0.0002 -0.00269 -7e-005 -0.00272 7e-005 -0.00272 0.0002 -0.00269 0.00034 -0.00265 0.00047 -0.0026 0.00059 -0.00256 0.00071 -0.00251 0.00083 -0.00246 0.00095 -0.00241 0.00106 -0.00234 0.00117 -0.00228 0.00127 -0.00222 0.00138 -0.00215 0.00148 -0.00207 0.00157 -0.002 0.00166 -0.00192 0.00175 -0.00184 0.00184 -0.00175 0.00192 -0.00166 0.002 -0.00157 0.00207 -0.00148 0.00215 -0.00138 0.00222 -0.00127 0.00228 -0.00117 0.00234 -0.00106 0.00241 -0.00095 0.00246 -0.00083 0.00251 -0.00071 0.00256 -0.00059 0.0026 -0.00047 0.00265 -0.00034 0.00269 -0.0002 0.00272 -7e-005z"/>
    </g>    
  
    <path id="r.vec.label.def" class="fil6" d="M-1.00932 0.30643c0.01448,-0.0523 0.02896,-0.11745 0.04425,-0.17135 0.02494,-0.08771 0.05229,-0.144 0.07803,-0.144 0.00966,0 0.02011,0.00563 0.03057,0.01287 0.01127,0.00804 0.02414,0.01528 0.03862,0.01528 0.03218,0 0.0547,-0.0378 0.0547,-0.06918 1e-005,-0.0322 -0.01931,-0.04746 -0.04988,-0.04746 -0.04907,-2e-005 -0.09814,0.04746 -0.13837,0.12067l-0.00402 -2e-005 0.02977 -0.11664 -0.00402 -0.00403 -0.17135 0.02334 -0.00564 0.02655 0.04747 0.00482c0.01528,0.00161 0.01689,0.01288 0.01206,0.0346l-0.07481 0.3242 0.11262 -0.00965zm-0.10694 -0.50504l0.23813 0 -0.02413 0.02895 0.02654 0.02897c0.0362,-0.03058 0.07803,-0.05309 0.13274,-0.06998l0.00644 -0.00243 0 -0.03058 -0.00644 -0.0024c-0.05632,-0.0169 -0.09574,-0.04021 -0.13274,-0.06998l-0.02654 0.02895 0.02413 0.02897 -0.23813 0 0 0.05953zm1.99078 0.50504c0.01448,-0.0523 0.02896,-0.11745 0.04424,-0.17135 0.02495,-0.08771 0.0523,-0.144 0.07804,-0.144 0.00966,0 0.02011,0.00563 0.03057,0.01287 0.01126,0.00804 0.02413,0.01528 0.03861,0.01528 0.03218,0 0.05471,-0.0378 0.05471,-0.06918 0,-0.0322 -0.01931,-0.04746 -0.04988,-0.04746 -0.04907,-2e-005 -0.09815,0.04746 -0.13837,0.12067l-0.00402 -2e-005 0.02977 -0.11664 -0.00403 -0.00403 -0.17135 0.02334 -0.00563 0.02655 0.04746 0.00482c0.01529,0.00161 0.01689,0.01288 0.01207,0.0346l-0.07482 0.3242 0.11263 -0.00965zm0.24742 -0.45275l-0.11504 -0.13595c-0.01207,-0.01369 -0.02414,-0.02494 -0.0354,-0.02494 -0.01126,0 -0.02333,0.01046 -0.0354,0.02494l-0.11503 0.13595 0.0193 0.02171 0.10056 -0.07561c0.01126,-0.00805 0.02253,-0.01528 0.03057,-0.01528 0.00885,-2e-005 0.01931,0.00724 0.03057,0.01529l0.10056 0.0756 0.01931 -0.02171zm-0.80131 0.45275c0.01367,-0.0523 0.02896,-0.11745 0.04183,-0.16411 0.02896,-0.1054 0.06918,-0.17457 0.09975,-0.17457 0.02495,-1e-005 0.03057,0.02011 0.05632,0.02011 0.02011,-2e-005 0.03781,-0.02655 0.03781,-0.04988 0.0008,-0.02173 -0.01046,-0.03539 -0.0362,-0.03539 -0.04505,-2e-005 -0.10056,0.05068 -0.14401,0.13756l-0.0016 0 0.0362 -0.13355 -0.00402 -0.00403 -0.13837 0.02253 -0.00483 0.0193 0.04988 0.00403c0.01931,0.00161 0.01769,0.01288 0.01206,0.03863l-0.07401 0.32902 0.06919 -0.00965zm-0.37014 -0.11505l0 -0.04665 -0.44247 0 0 0.04665 0.44247 0zm0 -0.17699l0 -0.04665 -0.44247 0 0 0.04665 0.44247 0z"/>  
    <path id="v.vec.label.def" class="fil6" d="M-1.22074 -0.21513l0.23812 0 -0.02413 0.02895 0.02655 0.02897c0.0362,-0.03058 0.07803,-0.05309 0.13273,-0.06998l0.00644 -0.00243 0 -0.03058 -0.00643 -0.0024c-0.05632,-0.0169 -0.09574,-0.04021 -0.13274,-0.06998l-0.02655 0.02895 0.02413 0.02897 -0.23812 0 0 0.05953zm2.19667 -0.02834l-0.09172 0.50683c-0.05953,-0.00563 -0.08688,-0.05229 -0.08688,-0.11503 0,-0.08287 0.04424,-0.19791 0.10056,-0.22687l-0.00724 -0.02414c-0.13113,0.02735 -0.20353,0.13194 -0.20353,0.23652 0,0.09573 0.07562,0.16331 0.19307,0.16573l-0.02896 0.17939c0.00322,0.00483 0.00563,0.00564 0.02574,0.00564 0.02012,-2e-005 0.02253,-0.00081 0.02655,-0.00564l0.0539 -0.1794c0.14803,-0.00242 0.24939,-0.09573 0.27433,-0.21157 0.00402,-0.01931 0.00643,-0.03781 0.00643,-0.0539 1e-005,-0.11103 -0.09493,-0.14561 -0.17296,-0.14561l0.04345 -0.16411 -0.13274 0.03216zm0.144 0.33145c-0.02092,0.09654 -0.07241,0.16734 -0.15205,0.17297l0.0893 -0.33547c0.04827,0 0.07159,0.0346 0.07159,0.09333 1e-005,0.0201 -0.00241,0.04263 -0.00804,0.06837l-0.0008 0.0008zm0.05839 -0.41168l-0.11504 -0.13594c-0.01207,-0.0137 -0.02414,-0.02495 -0.0354,-0.02495 -0.01126,0 -0.02333,0.01046 -0.0354,0.02495l-0.11503 0.13594 0.0193 0.02171 0.10056 -0.0756c0.01126,-0.00806 0.02253,-0.01529 0.03057,-0.01529 0.00885,-1e-005 0.01931,0.00725 0.03057,0.01529l0.10056 0.0756 0.01931 -0.02171zm-1.00177 0.23228l-0.00482 0.0193 0.04988 0.00403c0.0185,0.00161 0.01769,0.01208 0.01206,0.03863l-0.04907 0.22363c-0.01609,0.0732 0.00965,0.1054 0.0555,0.1054 0.06919,-1e-005 0.13918,-0.06436 0.19469,-0.13918 0.05471,-0.07401 0.09332,-0.1617 0.09412,-0.21158 1e-005,-0.03138 -0.0185,-0.06274 -0.02494,-0.06274 -0.0193,-2e-005 -0.04183,0.00643 -0.05872,0.01689 0.00805,0.02814 0.00965,0.05873 0.00965,0.10056 -0.00643,0.1102 -0.11021,0.25663 -0.17618,0.25421 -0.02011,0 -0.03459,-0.01769 -0.02574,-0.05631l0.06999 -0.31134 -0.00403 -0.00403 -0.14239 0.02253zm-0.33478 0.26628l0 -0.04665 -0.44247 0 0 0.04665 0.44247 0zm0 -0.17699l0 -0.04665 -0.44247 0 0 0.04665 0.44247 0zm-0.88845 -0.10779l-0.00403 -0.00403 -0.18181 0.02092 -0.00563 0.02655 0.04747 0.00482c0.01448,0.00161 0.01769,0.01289 0.01206,0.03702l-0.04907 0.21156c-0.0177,0.07724 0.00965,0.11265 0.07159,0.11265 0.07563,-1e-005 0.14481,-0.06275 0.20273,-0.13596 0.06195,-0.07723 0.09976,-0.16492 0.10056,-0.2148 0,-0.0346 -0.0185,-0.06274 -0.02494,-0.06274 -0.02896,-2e-005 -0.05953,0.00643 -0.08608,0.01689 0.00805,0.02814 0.00966,0.05953 0.00966,0.10136 -0.00644,0.11746 -0.07804,0.23169 -0.13274,0.23089 -0.02494,-1e-005 -0.03459,-0.02092 -0.02655,-0.05551l0.06678 -0.28962z"/>  
    <path id="a.vec.label.def" class="fil6" d="M-1.42157 -0.19861l0.23812 0 -0.02413 0.02895 0.02655 0.02897c0.0362,-0.03058 0.07803,-0.05309 0.13274,-0.06999l0.00643 -0.00242 0 -0.03058 -0.00643 -0.0024c-0.05632,-0.01691 -0.09574,-0.04022 -0.13274,-0.06998l-0.02655 0.02894 0.02413 0.02898 -0.23812 0 0 0.05953zm2.65964 0.50504c0.01448,-0.05231 0.02896,-0.11745 0.04425,-0.17135 0.02494,-0.08771 0.05229,-0.144 0.07803,-0.144 0.00966,-1e-005 0.02011,0.00563 0.03057,0.01287 0.01126,0.00804 0.02414,0.01528 0.03862,0.01528 0.03218,0 0.0547,-0.03781 0.0547,-0.06918 0,-0.0322 -0.01931,-0.04747 -0.04988,-0.04747 -0.04907,-1e-005 -0.09814,0.04747 -0.13837,0.12067l-0.00402 -1e-005 0.02977 -0.11664 -0.00403 -0.00403 -0.17135 0.02334 -0.00563 0.02655 0.04746 0.00482c0.01529,0.00161 0.0169,0.01288 0.01207,0.0346l-0.07482 0.32419 0.11263 -0.00964zm0.25166 -0.45276l-0.11504 -0.13594c-0.01207,-0.0137 -0.02414,-0.02495 -0.0354,-0.02495 -0.01126,0 -0.02333,0.01046 -0.0354,0.02495l-0.11504 0.13594 0.01931 0.02171 0.10056 -0.0756c0.01126,-0.00806 0.02252,-0.01529 0.03057,-0.01529 0.00885,-1e-005 0.01931,0.00725 0.03057,0.01529l0.10056 0.0756 0.01931 -0.02171zm-0.63071 0.09476c-0.01448,0.05953 -0.04344,0.13918 -0.08608,0.20354 -0.04505,0.06838 -0.09413,0.12228 -0.13274,0.12228 -0.02655,-1e-005 -0.0354,-0.02494 -0.0354,-0.05631 0,-0.0885 0.07884,-0.2872 0.20514,-0.2872 0.01932,-1e-005 0.03701,0.00644 0.04908,0.0177l0 -1e-005zm0.01207 -0.03941l-0.00403 0.01046c-0.01367,-0.00967 -0.037,-0.0169 -0.05873,-0.0169 -0.19146,-1e-005 -0.28317,0.21158 -0.28317,0.31777 0,0.04826 0.02252,0.09573 0.07723,0.09573 0.08608,-1e-005 0.16089,-0.09975 0.20755,-0.18181l0.00162 0 -0.02736 0.09171c-0.01689,0.05711 -0.00804,0.0901 0.0354,0.0901 0.06114,-1e-005 0.10619,-0.0547 0.13354,-0.11584l-0.0193 -0.01127c-0.01448,0.02816 -0.04988,0.08528 -0.07241,0.08528 -0.01609,-1e-005 -0.01528,-0.0185 -0.00804,-0.04425l0.08527 -0.32098 -0.06757 0zm-0.48508 0.19387l0 -0.04667 -0.44247 0 0 0.04667 0.44247 0zm-0.72814 0.08849l0 -0.04666 -0.44246 0 0 0.04666 0.44246 0zm0 -0.17699l0 -0.04665 -0.44246 0 0 0.04665 0.44246 0zm-0.80727 -0.10537l-0.00322 0.00722c-0.01448,-0.00885 -0.0354,-0.01366 -0.05712,-0.01366 -0.19147,-1e-005 -0.27996,0.21158 -0.27996,0.31697 0,0.04906 0.02172,0.09653 0.07884,0.09653 0.09574,-1e-005 0.15526,-0.09895 0.1979,-0.17216l0.00483 -1e-005 -0.02011 0.0708c-0.01931,0.06838 -0.00081,0.10137 0.04987,0.10137 0.07643,-1e-005 0.12631,-0.06194 0.16009,-0.12952l-0.02332 -0.01288c-0.02011,0.0354 -0.05069,0.07805 -0.07,0.07805 -0.01447,-1e-005 -0.01448,-0.0161 -0.00885,-0.03781l0.08126 -0.3049 -0.11021 0zm-0.09654 0.24134c-0.03942,0.06274 -0.0708,0.10137 -0.09654,0.10137 -0.0185,-1e-005 -0.02333,-0.01529 -0.02333,-0.03781 0,-0.08448 0.0724,-0.27433 0.16331,-0.27433 0.01528,-1e-005 0.02896,0.00402 0.03942,0.01126 -0.01448,0.05711 -0.04344,0.13515 -0.08286,0.19951l0 0z"/>  
    <path id="r.hat.label.def" class="fil6" d="M0.18214 -0.15075l-0.11504 -0.13594c-0.01207,-0.0137 -0.02414,-0.02495 -0.0354,-0.02495 -0.01126,0 -0.02333,0.01046 -0.0354,0.02495l-0.11503 0.13594 0.0193 0.02171 0.10056 -0.0756c0.01126,-0.00806 0.02253,-0.01529 0.03057,-0.01529 0.00885,-1e-005 0.01931,0.00725 0.03057,0.01529l0.10056 0.0756 0.01931 -0.02171zm-0.25166 0.45276c0.01448,-0.05231 0.02896,-0.11745 0.04425,-0.17135 0.02494,-0.08771 0.05229,-0.144 0.07803,-0.144 0.00966,-1e-005 0.02011,0.00563 0.03057,0.01287 0.01127,0.00804 0.02414,0.01528 0.03862,0.01528 0.03218,0 0.0547,-0.03781 0.0547,-0.06918 1e-005,-0.0322 -0.01931,-0.04747 -0.04988,-0.04747 -0.04907,-1e-005 -0.09814,0.04747 -0.13837,0.12067l-0.00402 -1e-005 0.02977 -0.11664 -0.00402 -0.00403 -0.17135 0.02334 -0.00564 0.02655 0.04747 0.00482c0.01528,0.00161 0.01689,0.01288 0.01206,0.0346l-0.07481 0.32419 0.11262 -0.00964z"/>
    <path id="p.hat.label.def" class="fil6" d="M0.21567 -0.32582l-0.11504 -0.13594c-0.01207,-0.0137 -0.02413,-0.02495 -0.0354,-0.02495 -0.01126,0 -0.02333,0.01046 -0.03539,0.02495l-0.11504 0.13594 0.01931 0.02171 0.10055 -0.0756c0.01127,-0.00806 0.02253,-0.01529 0.03057,-0.01529 0.00885,-1e-005 0.01931,0.00725 0.03057,0.01529l0.10057 0.0756 0.0193 -0.02171zm-0.20239 0.08448l-0.09172 0.50683c-0.05953,-0.00564 -0.08688,-0.05229 -0.08688,-0.11504 0,-0.08286 0.04425,-0.1979 0.10056,-0.22686l-0.00724 -0.02414c-0.13113,0.02735 -0.20353,0.13194 -0.20353,0.23652 0,0.09573 0.07562,0.16331 0.19307,0.16572l-0.02896 0.1794c0.00322,0.00482 0.00563,0.00563 0.02574,0.00563 0.02012,0 0.02253,-0.0008 0.02655,-0.00563l0.0539 -0.1794c0.14803,-0.00242 0.24939,-0.09573 0.27433,-0.21157 0.00402,-0.01932 0.00643,-0.03781 0.00643,-0.0539 1e-005,-0.11103 -0.09492,-0.14561 -0.17296,-0.14561l0.04345 -0.16412 -0.13274 0.03217zm0.144 0.33145c-0.02092,0.09654 -0.07241,0.16734 -0.15205,0.17297l0.0893 -0.33547c0.04827,0 0.07159,0.03459 0.07159,0.09332 1e-005,0.02011 -0.00241,0.04264 -0.00804,0.06838l-0.0008 0.0008z"/>
    <path id="-v.vec.label.def" class="fil6" d="M-15.0861 -2.1307l2.3812 0 -0.2413 0.2896 0.2655 0.2897c0.362,-0.3058 0.7803,-0.531 1.3273,-0.6999l0.0644 -0.0242 0 -0.3058 -0.0643 -0.024c-0.5632,-0.1691 -0.9574,-0.4022 -1.3274,-0.6999l-0.2655 0.2895 0.2413 0.2897 -2.3812 0 0 0.5953zm27.724 -0.2833l-0.9172 5.0683c-0.5953,-0.0564 -0.8688,-0.5229 -0.8688,-1.1504 0,-0.8287 0.4425,-1.979 1.0056,-2.2686l-0.0724 -0.2414c-1.3113,0.2734 -2.0353,1.3194 -2.0353,2.3652 0,0.9572 0.7562,1.6331 1.9307,1.6572l-0.2896 1.794c0.0322,0.0482 0.0563,0.0563 0.2574,0.0563 0.2012,-0.0002 0.2253,-0.008 0.2655,-0.0563l0.539 -1.7941c1.4803,-0.0242 2.4939,-0.9572 2.7433,-2.1157 0.0402,-0.1931 0.0643,-0.3781 0.0643,-0.539 0.0001,-1.1102 -0.9492,-1.4561 -1.7296,-1.4561l0.4345 -1.6411 -1.3274 0.3217zm1.44 3.3145c-0.2092,0.9654 -0.7241,1.6733 -1.5205,1.7296l0.893 -3.3546c0.4827,0 0.7159,0.3459 0.7159,0.9332 0.0001,0.201 -0.0241,0.4264 -0.0804,0.6838l-0.008 0.008zm0.5839 -4.1593l-1.1504 -1.3595c-0.1207,-0.1369 -0.2413,-0.2494 -0.354,-0.2494 -0.1126,0 -0.2333,0.1046 -0.3539,0.2494l-1.1504 1.3595 0.1931 0.2171 1.0055 -0.756c0.1127,-0.0806 0.2253,-0.1529 0.3057,-0.1529 0.0885,-0.0001 0.1931,0.0724 0.3057,0.1529l1.0057 0.756 0.193 -0.2171zm-9.9753 2.3652l-0.0482 0.1931 0.4987 0.0403c0.1851,0.016 0.177,0.1207 0.1207,0.3862l-0.4908 2.2363c-0.1608,0.732 0.0966,1.054 0.5551,1.054 0.6919,-0.0001 1.3918,-0.6436 1.9469,-1.3917 0.547,-0.7402 0.9332,-1.6171 0.9412,-2.1158 0,-0.3139 -0.185,-0.6275 -0.2494,-0.6275 -0.193,-0.0001 -0.4183,0.0644 -0.5873,0.1689 0.0805,0.2814 0.0966,0.5873 0.0966,1.0056 -0.0643,1.102 -1.1021,2.5663 -1.7618,2.5422 -0.2011,-0.0001 -0.3459,-0.177 -0.2574,-0.5632l0.6999 -3.1134 -0.0403 -0.0402 -1.4239 0.2252zm-1.8661 1.778l0 -0.4667 -4.4247 0 0 0.4667 4.4247 0zm-7.2814 0.8848l0 -0.4665 -4.4247 0 0 0.4665 4.4247 0zm0 -1.7698l0 -0.4666 -4.4247 0 0 0.4666 4.4247 0zm-8.8845 -1.078l-0.0403 -0.0402 -1.8181 0.2091 -0.0563 0.2655 0.4747 0.0482c0.1448,0.0161 0.1769,0.1289 0.1206,0.3703l-0.4907 2.1156c-0.177,0.7723 0.0965,1.1264 0.7159,1.1264 0.7563,-0.0001 1.4481,-0.6275 2.0273,-1.3596 0.6195,-0.7723 0.9976,-1.6492 1.0056,-2.1479 0,-0.3461 -0.185,-0.6275 -0.2494,-0.6275 -0.2896,-0.0001 -0.5953,0.0644 -0.8608,0.1689 0.0805,0.2814 0.0966,0.5953 0.0966,1.0137 -0.0644,1.1745 -0.7804,2.3169 -1.3274,2.3088 -0.2494,0 -0.3459,-0.2092 -0.2655,-0.5551l0.6678 -2.8962z" transform="scale(0.1)"/>
    
    <!-- Amostra -->
    <image id="sample.label.def" xlink:href="person.png" x="-1.5" y="-1.5" width="3" height="3"/>
    
  </defs>
  
  <!-- A ausência desse "background" torna a interação de arraste da base móvel muito ruim -->
  <rect width="25" height="25" fill="white" stroke="none"/>
  
  <g id="translation.group" transform="translate(10.5,10.5)">
    <g id="rotation.group" transform="rotate(-30)">
      <!-- O toldo do carrossel -->
      <use xlink:href="#background.def"/>
      
      <!-- Trajetória -->    
      <!--<circle id="trajectory" class="fil0 str0" r="10"/>-->
        
      <!-- Vetor r -->
      <use id="r.vec" xlink:href="#r.group.def" x="0" y="0" opacity="1"/>
    
      <!-- Vetor v -->
      <use id="v.vec" xlink:href="#v.group.def" x="0" y="0" transform="translate(10,0)" opacity="1" />
              
      <!-- Vetor a -->  
      <use id="a.vec" xlink:href="#a.group.def" x="0" y="0" transform="translate(10,0)" opacity="1"/>
          
      <!-- Posição da amostra -->
      <use id="sample.label.pos" xlink:href="#label.pos.def" x="10" y="0"/>
      
      <!-- Base {\hat r,\hat \phi} fixa no centro da tela -->
      <use id="fixed.base" xlink:href="#base.group.def" x="0" y="0" opacity="0.5"/>
    </g>
  </g>
  
  <path id="arc" stroke="black" stroke-width="0.05" fill="none"/>
  <line id="arc.reference.axis" x1="12.5" y1="12.5" x2="30" y2="12.5" class="str0 fil6"/>
  <text class="fnt1 fil6" text-anchor="middle"><tspan id="arc.label" baseline-shift="-50%"></tspan></text>
  
  <!-- Base {\hat r,\hat \phi} móvel (arrastável pelo usuários) -->
  <use id="free.base" x="5" y="5" transform="rotate(-30,5,5)" xlink:href="#base.group.def"/>
  
  <use id="r.hat.label.fixed.base" xlink:href="#r.hat.label.def" x="0" y="15"/>
  <use id="p.hat.label.fixed.base" xlink:href="#p.hat.label.def" x="5" y="15"/>
  <use id="r.hat.label.free.base" xlink:href="#r.hat.label.def" x="0" y="18"/>
  <use id="p.hat.label.free.base" xlink:href="#p.hat.label.def" x="5" y="18"/>
  <use id="r.vec.label" xlink:href="#r.vec.label.def" x="10" y="18"/>
  <use id="v.vec.label" xlink:href="#v.vec.label.def" x="15" y="18"/>
  <use id="a.vec.label" xlink:href="#a.vec.label.def" x="20" y="18"/>
  <use id="-v.vec.label" xlink:href="#-v.vec.label.def" x="8" y="8"/>
  
  <use id="sample.label" xlink:href="#sample.label.def" x="8" y="18"/>
  
</svg>