<?xml version="1.0" encoding="UTF-8"?>
<!DOCTYPE svg PUBLIC "-//W3C//DTD SVG 1.1//EN" "http://www.w3.org/Graphics/SVG/1.1/DTD/svg11.dtd">
<!-- Creator: CorelDRAW -->
<svg xmlns="http://www.w3.org/2000/svg" xml:space="preserve" width="90mm" height="90mm" shape-rendering="geometricPrecision" text-rendering="geometricPrecision" image-rendering="optimizeQuality" fill-rule="evenodd" clip-rule="evenodd"
viewBox="0 0 90 90"
 xmlns:xlink="http://www.w3.org/1999/xlink">
 <defs>
    <mask id="id0">
      <linearGradient id="id1" gradientUnits="userSpaceOnUse" x1="44.9895" y1="78.2668" x2="44.9895" y2="81.2324">
       <stop offset="0" stop-opacity="1" stop-color="white"/>
       <stop offset="1" stop-opacity="0" stop-color="white"/>
      </linearGradient>
     <rect fill="url(#id1)" x="-1.2297" y="78.2287" width="92.4384" height="3.0418"/>
    </mask>
    <mask id="id2">
      <linearGradient id="id3" gradientUnits="userSpaceOnUse" x1="45" y1="79.4338" x2="45" y2="80.6838">
       <stop offset="0" stop-opacity="1" stop-color="white"/>
       <stop offset="1" stop-opacity="0" stop-color="white"/>
      </linearGradient>
     <rect fill="url(#id3)" x="43.5736" y="79.2574" width="2.8528" height="1.6028"/>
    </mask>
    <mask id="id4">
      <linearGradient id="id5" gradientUnits="userSpaceOnUse" x1="45" y1="79.4338" x2="45" y2="80.6838">
       <stop offset="0" stop-opacity="1" stop-color="white"/>
       <stop offset="1" stop-opacity="0" stop-color="white"/>
      </linearGradient>
     <rect fill="url(#id5)" x="43.5736" y="79.2574" width="2.8528" height="1.6028"/>
    </mask>
 </defs>
 <g id="bkg.layer">
  <metadata id="CorelCorpID_0Corel-Layer"/>
  <rect id="background" fill="#99AE6A" stroke="#1F1A17" stroke-width="0.0706" width="90" height="90"/>
  <polygon fill="#99AE6A" points="20,29.0599 52,5.0598 70,29.0599 "/>
  <path fill="#DA251D" d="M20 29.0599l5 0c0,-1.0805 -0.351,-2.1334 -0.9987,-2.9978l-4.0013 2.9978z"/>
  <path fill="#FFF500" d="M70 29.0599l-5 0c0,-1.5736 0.7411,-3.0563 1.9997,-3.9999l3.0003 3.9999z"/>
  <circle id="D" fill="#1F1A17" cx="45" cy="31.4918" r="0"/>
  <circle id="C" fill="#1F1A17" cx="70" cy="29.0599" r="0"/>
  <circle id="B" fill="#1F1A17" cx="20" cy="29.0599" r="0"/>
  <circle id="A" fill="#1F1A17" cx="52" cy="5.0598" r="0"/>
  <line id="fixed.side.c" fill="none" stroke="#1F1A17" stroke-width="0.3528" stroke-linecap="round" stroke-linejoin="round" x1="52" y1="5.0598" x2="20" y2= "29.0599" />
  <line id="fixed.side.b" fill="none" stroke="#1F1A17" stroke-width="0.3528" stroke-linecap="round" stroke-linejoin="round" x1="70" y1="29.0599" x2="52" y2= "5.0598" />
  <line id="fixed.side.a" fill="none" stroke="#1F1A17" stroke-width="0.3528" stroke-linecap="round" stroke-linejoin="round" x1="20" y1="29.0599" x2="70" y2= "29.0599" />
  <line id="fixed.side.h" fill="none" stroke="#1F1A17" stroke-width="0.1764" stroke-linecap="round" stroke-linejoin="round" stroke-dasharray="0.352800 0.529200" x1="52" y1="5.0598" x2="52" y2= "29.0599" />
 </g>
 <g id="labels">
  <metadata id="CorelCorpID_1Corel-Layer"/>
  <g id="relation.1.group">
   <path id="relation.1" fill="black" d="M3.7558 86.2733c0,0.2328 -0.194,1.1124 -0.6693,1.1124 -0.1649,-0.0001 -0.2652,-0.1164 -0.2652,-0.2781 0.0001,-0.1553 0.0679,-0.3783 0.1714,-0.5659 0.1455,-0.2587 0.388,-0.5367 0.5885,-0.5367 0.1196,0 0.1746,0.0841 0.1746,0.2684l0 -0.0001zm9.7993 1.1867c0.0938,-0.3299 0.1487,-0.5044 0.2328,-0.7049 0.1196,-0.278 0.43,-0.7501 0.6919,-0.7501 0.1132,0 0.1423,0.1035 0.1067,0.2296l-0.278 0.9473c-0.0517,0.1811 -0.0098,0.3169 0.1648,0.3169 0.2426,0 0.4236,-0.2198 0.5336,-0.4656l-0.0776 -0.0452c-0.0582,0.1131 -0.2005,0.3427 -0.2911,0.3427 -0.0646,0 -0.0614,-0.0744 -0.0323,-0.1778l0.2522 -0.8473c0.0745,-0.2554 0.0356,-0.4687 -0.2296,-0.4687 -0.3103,-0.0001 -0.6466,0.3427 -0.8406,0.721l-0.0097 -0.0001 0.2102 -0.7048 -0.0162 -0.0162 -0.5917 0.0905 -0.0194 0.0777 0.2004 0.0162c0.0776,0.0064 0.0776,0.0517 0.0485,0.1552l-0.3395 1.3224 0.2846 -0.0388zm-1.6551 -0.9119c0,0.1132 0.0905,0.2038 0.2036,0.2038 0.1132,0 0.2037,-0.0905 0.2037,-0.2037 0.0001,-0.1132 -0.0905,-0.2037 -0.2037,-0.2037 -0.1131,-0.0001 -0.2037,0.0905 -0.2037,0.2037l0.0001 -0.0001zm-1.1164 -0.5269c-0.0582,0.2392 -0.1747,0.5593 -0.346,0.818 -0.181,0.2749 -0.3783,0.4915 -0.5335,0.4915 -0.1067,0 -0.1423,-0.1002 -0.1423,-0.2263 0.0001,-0.3558 0.3169,-1.1544 0.8245,-1.1544 0.0777,0 0.1487,0.0259 0.1972,0.0712l0.0001 0zm0.0485 -0.1585l-0.0161 0.042c-0.055,-0.0388 -0.1489,-0.0678 -0.2362,-0.0678 -0.7695,-0.0001 -1.1381,0.8503 -1.1381,1.2772 0,0.1939 0.0905,0.3847 0.3104,0.3847 0.346,0 0.6467,-0.4009 0.8342,-0.7307l0.0065 0 -0.1099 0.3686c-0.0679,0.2295 -0.0324,0.3621 0.1422,0.3621 0.2458,0 0.4268,-0.2198 0.5368,-0.4656l-0.0776 -0.0452c-0.0582,0.1131 -0.2005,0.3427 -0.2911,0.3427 -0.0645,0 -0.0614,-0.0744 -0.0323,-0.1778l0.3428 -1.2902 -0.2716 0zm-2.5563 1.1349l0 -0.1875 -1.7784 0 0 0.1875 1.7784 0zm0 -0.7113l0 -0.1875 -1.7784 0 0 0.1875 1.7784 0zm-2.9358 -0.5901l-0.0688 -0.0123c-0.0516,0.1328 -0.1008,0.15 -0.199,0.15l-0.6291 -0.0001c0.0393,-0.1278 0.1843,-0.3022 0.4128,-0.4668 0.2359,-0.172 0.4178,-0.2826 0.4178,-0.5578 0,-0.3417 -0.2261,-0.4596 -0.4842,-0.4596 -0.3366,0 -0.5111,0.204 -0.5111,0.3318 0,0.0835 0.0934,0.1228 0.1352,0.1228 0.0442,0 0.0614,-0.0245 0.0712,-0.0663 0.0394,-0.1671 0.1352,-0.3023 0.2875,-0.3023 0.1893,-0.0001 0.2433,0.1598 0.2433,0.3392 0,0.2629 -0.1327,0.4103 -0.3465,0.5996 -0.3022,0.2629 -0.4079,0.43 -0.4546,0.6217l0.0246 0.0246 1.0174 0 0.0835 -0.3245zm-2.0757 -0.6192l-0.0161 -0.0162 -0.5788 0.0776 -0.0194 0.0743 0.1843 0.0227c0.0808,0.0097 0.0937,0.0324 0.0646,0.1585l-0.4753 2.0661 0.1164 0 0.1003 -0.1876c0.0582,0.1358 0.2231,0.2264 0.4074,0.2264 0.3783,0 0.6531,-0.2522 0.8116,-0.5367 0.1617,-0.2846 0.2134,-0.5723 0.2134,-0.7178 0,-0.2393 -0.1067,-0.4074 -0.346,-0.4074 -0.2457,-0.0001 -0.5659,0.2231 -0.8148,0.666l-0.0064 0 0.3588 -1.4259z"/>
   <rect id="relation.1.slice" fill="white" x="2.4236" y="84.3496" width="12.5833" height="3.1492" opacity="0"/>
  </g>
  <g id="relation.2.group">
   <path id="relation.2" fill="#1F1A17" d="M26.6311 86.962c-0.11,0.1487 -0.3008,0.3784 -0.5174,0.3784 -0.2361,-0.0001 -0.2846,-0.194 -0.2846,-0.4236 0,-0.4204 0.2425,-0.9668 0.54,-0.9668 0.1035,0 0.1746,0.0647 0.194,0.2587 0.0065,0.0581 0.0356,0.097 0.0938,0.097 0.0776,-0.0001 0.2069,-0.0744 0.2069,-0.1811 0,-0.165 -0.1746,-0.2878 -0.4171,-0.2878 -0.5755,0 -0.9377,0.6144 -0.9377,1.1447 0,0.3944 0.236,0.5173 0.4624,0.5173 0.2393,0 0.5141,-0.1035 0.7372,-0.4753l-0.0775 -0.0615zm9.713 0.498c0.0938,-0.3299 0.1455,-0.5174 0.2134,-0.6887 0.11,-0.2814 0.4268,-0.7663 0.6952,-0.7663 0.0971,0 0.1487,0.0711 0.097,0.2716l-0.2392 0.9053 -0.0841 0.3169 0.2813 -0.0388c0.0938,-0.3299 0.1455,-0.5174 0.2296,-0.7146 0.1196,-0.2749 0.4138,-0.7404 0.6854,-0.7404 0.1068,0 0.152,0.0873 0.11,0.2263l-0.278 0.9506c-0.0583,0.2004 0.0064,0.3169 0.168,0.3169 0.2362,0 0.4171,-0.2199 0.5271,-0.4656l-0.0776 -0.0453c-0.0582,0.1131 -0.2005,0.3428 -0.291,0.3428 -0.0646,-0.0001 -0.0615,-0.0744 -0.0324,-0.1779l0.2491 -0.8472c0.0743,-0.2554 0.0322,-0.4688 -0.2361,-0.4688 -0.291,0 -0.5853,0.2684 -0.8181,0.6855l-0.0128 0 0.0646 -0.2037c0.097,-0.3105 0.0323,-0.4818 -0.1941,-0.4818 -0.2974,0 -0.5981,0.2781 -0.8212,0.6855l-0.0097 0 0.2037 -0.6693 -0.0161 -0.0162 -0.5853 0.0905 -0.0194 0.0777 0.1973 0.0161c0.0776,0.0065 0.071,0.0518 0.0452,0.1552l-0.3331 1.3225 0.2813 -0.0388zm-1.6518 -0.9119c0,0.1132 0.0905,0.2038 0.2036,0.2038 0.1132,0 0.2037,-0.0906 0.2037,-0.2037 0.0001,-0.1132 -0.0905,-0.2037 -0.2037,-0.2037 -0.1131,-0.0001 -0.2037,0.0905 -0.2037,0.2037l0.0001 -0.0001zm-1.1164 -0.527c-0.0582,0.2392 -0.1747,0.5594 -0.346,0.8181 -0.181,0.2748 -0.3783,0.4915 -0.5335,0.4915 -0.1067,-0.0001 -0.1423,-0.1003 -0.1423,-0.2264 0.0001,-0.3557 0.3169,-1.1543 0.8245,-1.1543 0.0777,0 0.1487,0.0259 0.1972,0.0711l0.0001 0zm0.0485 -0.1584l-0.0161 0.0419c-0.055,-0.0387 -0.1489,-0.0678 -0.2362,-0.0678 -0.7695,0 -1.1381,0.8504 -1.1381,1.2772 0,0.194 0.0905,0.3848 0.3104,0.3848 0.346,0 0.6467,-0.4009 0.8342,-0.7308l0.0065 0 -0.1099 0.3686c-0.0679,0.2295 -0.0324,0.3622 0.1422,0.3622 0.2458,0 0.4268,-0.2199 0.5368,-0.4656l-0.0776 -0.0453c-0.0582,0.1131 -0.2005,0.3428 -0.2911,0.3428 -0.0645,-0.0001 -0.0614,-0.0744 -0.0323,-0.1779l0.3428 -1.2901 -0.2716 0zm-2.5563 1.1348l0 -0.1875 -1.7784 0 0 0.1875 1.7784 0zm0 -0.7113l0 -0.1875 -1.7784 0 0 0.1875 1.7784 0zm-2.9781 -0.59l-0.0688 -0.0123c-0.0516,0.1327 -0.1008,0.15 -0.1991,0.15l-0.6291 -0.0001c0.0393,-0.1278 0.1843,-0.3022 0.4128,-0.4668 0.236,-0.1721 0.4178,-0.2826 0.4178,-0.5579 0,-0.3416 -0.2261,-0.4595 -0.4841,-0.4595 -0.3366,0 -0.5112,0.204 -0.5112,0.3317 0.0001,0.0835 0.0934,0.1229 0.1352,0.1229 0.0443,0 0.0614,-0.0246 0.0713,-0.0663 0.0393,-0.1672 0.1351,-0.3023 0.2875,-0.3023 0.1892,-0.0001 0.2433,0.1597 0.2433,0.3391 0,0.263 -0.1327,0.4104 -0.3465,0.5996 -0.3023,0.263 -0.408,0.4301 -0.4546,0.6218l0.0245 0.0245 1.0174 0 0.0836 -0.3244z"/>
   <rect id="relation.2.slice" fill="white" x="25.509" y="84.3496" width="13.2408" height="3.1492" opacity="0"/>
  </g>
  <g id="relation.3.group">
   <path id="relation.3" fill="#1F1A17" d="M51.3627 85.0769l-0.0162 -0.0161 -0.582 0.0775 -0.0194 0.0744 0.1843 0.0226c0.0808,0.0097 0.0937,0.0324 0.0646,0.1585l-0.472 2.105 0.2813 -0.0388c0.0873,-0.3299 0.1358,-0.5077 0.2166,-0.7114 0.097,-0.2522 0.4171,-0.7437 0.6984,-0.7437 0.1035,0 0.1423,0.0938 0.1035,0.2264l-0.2651 0.9182c-0.0615,0.2134 -0.0162,0.3493 0.1681,0.3493 0.2231,0 0.4042,-0.2199 0.5141,-0.4656l-0.0776 -0.0453c-0.0582,0.1131 -0.2005,0.3427 -0.291,0.3427 -0.0647,0 -0.0647,-0.0743 -0.0324,-0.1778l0.2555 -0.8472c0.0776,-0.2554 0.0356,-0.4688 -0.2264,-0.4688 -0.3071,-0.0001 -0.6499,0.333 -0.8568,0.721l-0.0097 0 0.3622 -1.4809zm11.486 2.3831c0.0937,-0.3299 0.1487,-0.5044 0.2327,-0.7049 0.1197,-0.2781 0.4301,-0.7502 0.692,-0.7502 0.1132,0 0.1422,0.1035 0.1067,0.2296l-0.2781 0.9474c-0.0517,0.181 -0.0097,0.3169 0.1649,0.3169 0.2425,0 0.4236,-0.2199 0.5335,-0.4656l-0.0776 -0.0453c-0.0581,0.1131 -0.2005,0.3427 -0.291,0.3427 -0.0647,0 -0.0614,-0.0743 -0.0323,-0.1778l0.2522 -0.8472c0.0744,-0.2554 0.0356,-0.4688 -0.2296,-0.4688 -0.3103,-0.0001 -0.6467,0.3427 -0.8407,0.721l-0.0096 0 0.2102 -0.7049 -0.0162 -0.0162 -0.5918 0.0905 -0.0193 0.0777 0.2004 0.0162c0.0776,0.0064 0.0776,0.0517 0.0485,0.1552l-0.3395 1.3225 0.2846 -0.0388zm-1.6551 -0.912c0,0.1133 0.0904,0.2038 0.2036,0.2038 0.1132,0 0.2037,-0.0905 0.2037,-0.2037 0.0001,-0.1132 -0.0905,-0.2037 -0.2037,-0.2037 -0.1131,0 -0.2037,0.0906 -0.2037,0.2037l0.0001 -0.0001zm-3.2166 0.912c0.0938,-0.3299 0.1455,-0.5174 0.2134,-0.6887 0.11,-0.2814 0.4268,-0.7664 0.6952,-0.7664 0.0971,0 0.1487,0.0712 0.097,0.2716l-0.2392 0.9054 -0.084 0.3169 0.2812 -0.0388c0.0938,-0.3299 0.1455,-0.5174 0.2296,-0.7146 0.1196,-0.2749 0.4138,-0.7405 0.6854,-0.7405 0.1068,0 0.152,0.0873 0.11,0.2264l-0.278 0.9506c-0.0583,0.2004 0.0064,0.3169 0.168,0.3169 0.2362,0 0.4171,-0.2199 0.5271,-0.4656l-0.0776 -0.0453c-0.0582,0.1131 -0.2005,0.3427 -0.291,0.3427 -0.0646,0 -0.0615,-0.0743 -0.0324,-0.1778l0.2491 -0.8472c0.0743,-0.2554 0.0322,-0.4688 -0.2361,-0.4688 -0.291,-0.0001 -0.5853,0.2684 -0.8181,0.6855l-0.0128 0 0.0646 -0.2037c0.097,-0.3105 0.0323,-0.4818 -0.1941,-0.4818 -0.2974,-0.0001 -0.5981,0.2781 -0.8212,0.6855l-0.0097 0 0.2037 -0.6694 -0.0161 -0.0162 -0.5853 0.0905 -0.0194 0.0777 0.1973 0.0162c0.0776,0.0064 0.071,0.0517 0.0452,0.1552l-0.3331 1.3225 0.2813 -0.0388zm-1.4659 -0.4625l0 -0.1875 -1.7784 0 0 0.1875 1.7784 0zm0 -0.7113l0 -0.1875 -1.7784 0 0 0.1875 1.7784 0zm-2.9781 -0.5899l-0.0688 -0.0123c-0.0516,0.1327 -0.1008,0.1499 -0.1991,0.1499l-0.6291 0c0.0393,-0.1278 0.1843,-0.3022 0.4128,-0.4669 0.236,-0.172 0.4178,-0.2826 0.4178,-0.5578 0,-0.3417 -0.2261,-0.4595 -0.4841,-0.4595 -0.3366,0 -0.5112,0.2039 -0.5112,0.3317 0.0001,0.0835 0.0934,0.1229 0.1352,0.1229 0.0443,0 0.0614,-0.0246 0.0713,-0.0664 0.0393,-0.1671 0.1351,-0.3022 0.2875,-0.3022 0.1892,-0.0001 0.2433,0.1597 0.2433,0.3391 0,0.2629 -0.1327,0.4104 -0.3465,0.5996 -0.3023,0.2629 -0.408,0.4301 -0.4546,0.6217l0.0245 0.0246 1.0174 0 0.0836 -0.3244z"/>
   <rect id="relation.3.slice" fill="white" x="50.522" y="84.3497" width="13.7784" height="3.14914" opacity="0"/>
  </g>
  <g id="relation.4.group">
   <path id="relation.4" fill="#1F1A17" d="M74.8647 86.2732c0,0.2329 -0.194,1.1124 -0.6693,1.1124 -0.1649,0 -0.2651,-0.1164 -0.2651,-0.278 0,-0.1553 0.0679,-0.3784 0.1713,-0.5659 0.1455,-0.2587 0.388,-0.5367 0.5885,-0.5367 0.1197,0 0.1746,0.084 0.1746,0.2683l0 -0.0001zm12.3258 -1.1962l-0.0162 -0.0162 -0.582 0.0776 -0.0195 0.0743 0.1844 0.0226c0.0808,0.0097 0.0937,0.0324 0.0646,0.1585l-0.472 2.105 0.2813 -0.0388c0.0873,-0.3299 0.1357,-0.5077 0.2166,-0.7113 0.097,-0.2523 0.4171,-0.7437 0.6984,-0.7437 0.1035,0 0.1422,0.0937 0.1034,0.2263l-0.2651 0.9182c-0.0614,0.2135 -0.0162,0.3493 0.1681,0.3493 0.2232,0 0.4042,-0.2199 0.5142,-0.4656l-0.0776 -0.0453c-0.0582,0.1131 -0.2005,0.3428 -0.2911,0.3428 -0.0646,-0.0001 -0.0646,-0.0744 -0.0323,-0.1779l0.2555 -0.8472c0.0776,-0.2554 0.0355,-0.4688 -0.2264,-0.4688 -0.3071,0 -0.6499,0.3331 -0.8568,0.7211l-0.0097 -0.0001 0.3622 -1.4808zm-2.1919 1.4711c0,0.1132 0.0905,0.2038 0.2036,0.2038 0.1132,0 0.2037,-0.0906 0.2037,-0.2037 0.0001,-0.1132 -0.0905,-0.2037 -0.2037,-0.2037 -0.1131,-0.0001 -0.2037,0.0905 -0.2037,0.2037l0.0001 -0.0001zm-1.1164 -0.527c-0.0582,0.2392 -0.1747,0.5594 -0.346,0.8181 -0.181,0.2748 -0.3783,0.4915 -0.5335,0.4915 -0.1067,-0.0001 -0.1423,-0.1003 -0.1423,-0.2264 0.0001,-0.3557 0.3169,-1.1543 0.8245,-1.1543 0.0777,0 0.1487,0.0259 0.1972,0.0711l0.0001 0zm0.0485 -0.1584l-0.0161 0.0419c-0.055,-0.0387 -0.1489,-0.0678 -0.2362,-0.0678 -0.7695,0 -1.1381,0.8504 -1.1381,1.2772 0,0.194 0.0905,0.3848 0.3104,0.3848 0.346,0 0.6467,-0.4009 0.8342,-0.7308l0.0065 0 -0.1099 0.3686c-0.0679,0.2295 -0.0324,0.3622 0.1422,0.3622 0.2458,0 0.4268,-0.2199 0.5368,-0.4656l-0.0776 -0.0453c-0.0582,0.1131 -0.2005,0.3428 -0.2911,0.3428 -0.0645,-0.0001 -0.0614,-0.0744 -0.0323,-0.1779l0.3428 -1.2901 -0.2716 0zm-2.5563 1.1348l0 -0.1875 -1.7784 0 0 0.1875 1.7784 0zm0 -0.7113l0 -0.1875 -1.7784 0 0 0.1875 1.7784 0zm-2.9977 0.6758c-0.11,0.1488 -0.3007,0.3784 -0.5174,0.3784 -0.236,-0.0001 -0.2845,-0.194 -0.2845,-0.4236 0,-0.4204 0.2425,-0.9668 0.54,-0.9668 0.1035,0 0.1746,0.0647 0.194,0.2587 0.0065,0.0581 0.0355,0.097 0.0937,0.097 0.0777,-0.0001 0.207,-0.0744 0.207,-0.1811 0,-0.165 -0.1746,-0.2878 -0.4171,-0.2878 -0.5755,0 -0.9377,0.6144 -0.9377,1.1447 0,0.3944 0.236,0.5173 0.4624,0.5173 0.2392,0 0.5141,-0.1035 0.7372,-0.4753l-0.0776 -0.0615zm-2.4376 -0.4139c0,0.1132 0.0905,0.2038 0.2037,0.2038 0.1132,0 0.2037,-0.0906 0.2037,-0.2037 0,-0.1132 -0.0906,-0.2037 -0.2037,-0.2037 -0.1132,-0.0001 -0.2037,0.0905 -0.2037,0.2037l0 -0.0001zm-1.5659 -1.4711l-0.0161 -0.0162 -0.5788 0.0776 -0.0194 0.0743 0.1843 0.0226c0.0808,0.0097 0.0938,0.0324 0.0647,0.1585l-0.4753 2.0662 0.1163 0 0.1003 -0.1876c0.0582,0.1358 0.2231,0.2264 0.4074,0.2264 0.3783,0 0.6531,-0.2522 0.8116,-0.5368 0.1617,-0.2845 0.2134,-0.5723 0.2134,-0.7178 0,-0.2392 -0.1067,-0.4074 -0.346,-0.4074 -0.2457,0 -0.5658,0.2231 -0.8148,0.6661l-0.0064 -0.0001 0.3588 -1.4258z"/>
   <rect id="relation.4.slice" fill="white" x="73.5326" y="85.077" width="14.5341" height="2.42183" opacity="0"/>
  </g>
  <path id="label.fixed.c" fill="#1F1A17" d="M0.4947 0.3273c-0.1224,0.1655 -0.3346,0.4209 -0.5757,0.4209 -0.2625,0 -0.3165,-0.2158 -0.3165,-0.4713 0,-0.4677 0.2698,-1.0756 0.6008,-1.0756 0.1152,0 0.1943,0.0719 0.2159,0.2878 0.0072,0.0646 0.0395,0.1079 0.1042,0.1079 0.0865,-0.0001 0.2303,-0.0828 0.2303,-0.2015 0,-0.1836 -0.1942,-0.3201 -0.4641,-0.3201 -0.6403,-0.0001 -1.0433,0.6835 -1.0433,1.2735 0,0.4388 0.2626,0.5756 0.5145,0.5756 0.2663,0 0.572,-0.1151 0.8202,-0.5288l-0.0863 -0.0684z"/>
  <path id="label.fixed.b" fill="#1F1A17" d="M0.5648 -0.0073c0,0.2591 -0.2159,1.2377 -0.7447,1.2377 -0.1835,0 -0.295,-0.1296 -0.295,-0.3094 0,-0.1728 0.0756,-0.421 0.1906,-0.6296 0.162,-0.2878 0.4317,-0.5971 0.6548,-0.5971 0.1332,0 0.1943,0.0934 0.1943,0.2985l0 -0.0001zm-0.5468 -1.331l-0.018 -0.018 -0.644 0.0864 -0.0216 0.0826 0.2052 0.0252c0.0898,0.0108 0.1042,0.036 0.0719,0.1763l-0.5289 2.2989 0.1295 0 0.1115 -0.2087c0.0648,0.1511 0.2482,0.2519 0.4533,0.2519 0.4209,0 0.7267,-0.2806 0.903,-0.5973 0.1799,-0.3165 0.2374,-0.6367 0.2374,-0.7986 0,-0.2661 -0.1187,-0.4533 -0.3849,-0.4533 -0.2734,0 -0.6295,0.2482 -0.9066,0.7411l-0.0072 -0.0001 0.3994 -1.5864z"/>
  <path id="label.fixed.a" fill="#1F1A17" d="M0.536 -0.7195c-0.0647,0.2661 -0.1943,0.6224 -0.3849,0.9101 -0.2014,0.3059 -0.4209,0.5469 -0.5936,0.5469 -0.1187,0 -0.1583,-0.1115 -0.1583,-0.2518 0.0001,-0.3958 0.3525,-1.2843 0.9173,-1.2843 0.0865,0 0.1655,0.0287 0.2194,0.0791l0.0001 0zm0.054 -0.1764l-0.0179 0.0467c-0.0612,-0.0431 -0.1657,-0.0754 -0.2628,-0.0754 -0.8562,-0.0001 -1.2663,0.9462 -1.2663,1.4211 0,0.2158 0.1007,0.4281 0.3454,0.4281 0.3849,0 0.7195,-0.4462 0.9281,-0.8131l0.0072 0 -0.1222 0.4101c-0.0756,0.2554 -0.0361,0.403 0.1582,0.403 0.2735,0 0.4749,-0.2447 0.5972,-0.518l-0.0863 -0.0504c-0.0648,0.1258 -0.2231,0.3813 -0.3239,0.3813 -0.0717,0 -0.0683,-0.0827 -0.0359,-0.1979l0.3814 -1.4355 -0.3022 0z"/>
  <path id="label.n" fill="#1F1A17" d="M-0.6493 0.8816c0.1044,-0.367 0.1654,-0.5612 0.259,-0.7843 0.1332,-0.3094 0.4784,-0.8347 0.7698,-0.8347 0.1261,0 0.1584,0.1152 0.1188,0.2555l-0.3094 1.0541c-0.0575,0.2014 -0.0108,0.3526 0.1835,0.3526 0.2698,0 0.4713,-0.2447 0.5936,-0.518l-0.0863 -0.0504c-0.0647,0.1258 -0.2231,0.3813 -0.3238,0.3813 -0.072,0 -0.0684,-0.0827 -0.0361,-0.1979l0.2808 -0.9426c0.0827,-0.2842 0.0394,-0.5216 -0.2555,-0.5216 -0.3454,-0.0001 -0.7195,0.3813 -0.9354,0.8022l-0.0107 0 0.2338 -0.7843 -0.018 -0.018 -0.6584 0.1007 -0.0215 0.0864 0.223 0.0181c0.0864,0.0071 0.0864,0.0575 0.0539,0.1727l-0.3777 1.4714 0.3166 -0.0432z"/>
  <path id="label.m" fill="#1F1A17" d="M-1.1818 0.8814c0.1043,-0.367 0.1618,-0.5755 0.2374,-0.7662 0.1224,-0.313 0.4749,-0.8526 0.7735,-0.8526 0.108,0 0.1654,0.0791 0.1079,0.3021l-0.2661 1.0073 -0.0935 0.3526 0.3129 -0.0432c0.1044,-0.367 0.1619,-0.5755 0.2554,-0.7951 0.1331,-0.3058 0.4605,-0.8237 0.7626,-0.8237 0.1189,0 0.1692,0.0971 0.1224,0.2517l-0.3093 1.0577c-0.0648,0.223 0.0071,0.3526 0.1869,0.3526 0.2628,0 0.4641,-0.2446 0.5865,-0.518l-0.0863 -0.0503c-0.0648,0.1258 -0.2231,0.3813 -0.3238,0.3813 -0.0719,0 -0.0684,-0.0828 -0.0361,-0.1979l0.2772 -0.9427c0.0827,-0.2842 0.0358,-0.5215 -0.2627,-0.5215 -0.3238,-0.0001 -0.6512,0.2985 -0.9102,0.7626l-0.0143 0 0.0719 -0.2266c0.1079,-0.3454 0.0359,-0.536 -0.216,-0.536 -0.3309,-0.0001 -0.6654,0.3093 -0.9136,0.7626l-0.0108 0 0.2266 -0.7447 -0.0179 -0.018 -0.6512 0.1007 -0.0216 0.0865 0.2195 0.018c0.0863,0.0071 0.079,0.0575 0.0503,0.1727l-0.3706 1.4713 0.313 -0.0432z"/>
  <path id="label.h.2" fill="#1F1A17" d="M-0.0198 -1.3384l-0.0181 -0.0179 -0.6475 0.0862 -0.0217 0.0828 0.2052 0.0252c0.0899,0.0108 0.1042,0.036 0.0718,0.1763l-0.5251 2.3421 0.313 -0.0432c0.0971,-0.367 0.151,-0.5649 0.241,-0.7915 0.1079,-0.2806 0.464,-0.8275 0.777,-0.8275 0.1152,0 0.1584,0.1044 0.1151,0.2519l-0.295 1.0217c-0.0683,0.2374 -0.018,0.3886 0.187,0.3886 0.2484,0 0.4498,-0.2447 0.5722,-0.518l-0.0864 -0.0504c-0.0647,0.1258 -0.2231,0.3813 -0.3239,0.3813 -0.0718,0 -0.0718,-0.0827 -0.0359,-0.1979l0.2843 -0.9426c0.0863,-0.2842 0.0395,-0.5216 -0.2519,-0.5216 -0.3417,-0.0001 -0.7231,0.3705 -0.9533,0.8022l-0.0108 0 0.403 -1.6477z"/>
  <path id="label.h.1" fill="#1F1A17" d="M-0.0198 -1.3384l-0.0181 -0.0179 -0.6475 0.0862 -0.0217 0.0828 0.2052 0.0252c0.0899,0.0108 0.1042,0.036 0.0718,0.1763l-0.5251 2.3421 0.313 -0.0432c0.0971,-0.367 0.151,-0.5649 0.241,-0.7915 0.1079,-0.2806 0.464,-0.8275 0.777,-0.8275 0.1152,0 0.1584,0.1044 0.1151,0.2519l-0.295 1.0217c-0.0683,0.2374 -0.018,0.3886 0.187,0.3886 0.2484,0 0.4498,-0.2447 0.5722,-0.518l-0.0864 -0.0504c-0.0647,0.1258 -0.2231,0.3813 -0.3239,0.3813 -0.0718,0 -0.0718,-0.0827 -0.0359,-0.1979l0.2843 -0.9426c0.0863,-0.2842 0.0395,-0.5216 -0.2519,-0.5216 -0.3417,-0.0001 -0.7231,0.3705 -0.9533,0.8022l-0.0108 0 0.403 -1.6477z"/>
  <path id="label.c" fill="#1F1A17" d="M0.4946 0.3273c-0.1224,0.1655 -0.3345,0.4209 -0.5757,0.4209 -0.2625,0 -0.3165,-0.2158 -0.3165,-0.4713 0,-0.4677 0.2698,-1.0756 0.6008,-1.0756 0.1152,0 0.1943,0.0719 0.2159,0.2878 0.0072,0.0646 0.0395,0.1079 0.1042,0.1079 0.0865,-0.0001 0.2303,-0.0828 0.2303,-0.2015 0,-0.1836 -0.1942,-0.3201 -0.464,-0.3201 -0.6404,-0.0001 -1.0433,0.6835 -1.0433,1.2735 0,0.4388 0.2625,0.5756 0.5144,0.5756 0.2663,0 0.572,-0.1151 0.8203,-0.5288l-0.0864 -0.0684z"/>
  <path id="label.b" fill="#1F1A17" d="M0.5648 -0.0073c0,0.2591 -0.2159,1.2377 -0.7447,1.2377 -0.1835,0 -0.295,-0.1296 -0.295,-0.3094 0,-0.1728 0.0756,-0.421 0.1906,-0.6296 0.162,-0.2878 0.4317,-0.5971 0.6548,-0.5971 0.1332,0 0.1943,0.0934 0.1943,0.2985l0 -0.0001zm-0.5468 -1.331l-0.018 -0.018 -0.644 0.0864 -0.0216 0.0826 0.2052 0.0252c0.0898,0.0108 0.1043,0.036 0.0719,0.1763l-0.5289 2.2989 0.1296 0 0.1114 -0.2087c0.0648,0.1511 0.2483,0.2519 0.4533,0.2519 0.4209,0 0.7267,-0.2806 0.903,-0.5973 0.1799,-0.3165 0.2375,-0.6367 0.2375,-0.7986 0,-0.2661 -0.1187,-0.4533 -0.385,-0.4533 -0.2734,0 -0.6295,0.2482 -0.9066,0.7411l-0.0072 -0.0001 0.3994 -1.5864z"/>
 </g>
 <g id="triangle.layer">
  <metadata id="CorelCorpID_2Corel-Layer"/>
  <g id="triangle.0">
   <polygon id="triangle.0.bkg" fill="#99AE6A" points="-21.3334,8 10.6666,-16.0001 10.6666,8 " opacity="0.5"/>
   <path id="_54093896" fill="#FFF500" d="M10.6666 -16.0001l0 4.9998c-1.5737,0 -3.0565,-0.7411 -4.0001,-1.9997l4.0001 -3.0001z"/>
   <polyline id="_54093760" fill="none" stroke="#1F1A17" stroke-width="0.3528" points="8.1666,7.9999 8.1666,5.4999 10.6666,5.4999 "/>
   <rect id="_54093512" fill="#99AE6A" x="8.1666" y="5.4999" width="2.5" height="2.5"/>
   <circle id="_54076672" fill="#1F1A17" cx="9.4166" cy="6.7499" r="0.249973"/>
   <path id="_54070504" fill="#DA251D" d="M-21.3334 7.9999l5 0c0,-1.0805 -0.351,-2.1334 -0.9987,-2.9978l-4.0013 2.9978z"/>
   <line id="side.m" fill="none" stroke="#1F1A17" stroke-width="0.3527" stroke-linecap="round" stroke-linejoin="round" x1="-21.3334" y1="7.9999" x2="10.6666" y2= "7.9999" />
   <line id="side.h.0" fill="none" stroke="#1F1A17" stroke-width="0.3527" stroke-linecap="round" stroke-linejoin="round" stroke-dasharray="0.705400 1.058100" x1="10.6666" y1="-16.0001" x2="10.6666" y2= "7.9999" />
   <line id="side.c" fill="none" stroke="#1F1A17" stroke-width="0.3527" stroke-linecap="round" stroke-linejoin="round" x1="-21.3334" y1="7.9999" x2="10.6666" y2= "-16.0001" />
  </g>
  <g id="triangle.1">
   <polygon id="triangle.1.bkg" fill="#99AE6A" points="-6,-16.0001 12,8 -6,8 " opacity="0.5"/>
   <path id="_53991600" fill="#FFF500" d="M12 7.9999l-5 0c0,-1.5736 0.7411,-3.0563 1.9997,-3.9999l3.0003 3.9999z"/>
   <polyline id="_53990784" fill="none" stroke="#1F1A17" stroke-width="0.3528" points="-3.5,7.9999 -3.5,5.4999 -6,5.4999 "/>
   <rect id="_54081408" fill="#99AE6A" x="-6" y="5.4999" width="2.5" height="2.5"/>
   <circle id="_54080664" fill="#1F1A17" stroke="#1F1A17" stroke-width="0.1764" cx="-4.75" cy="6.7499" r="0.124987"/>
   <path id="_54078968" fill="#DA251D" d="M-6 -16.0001l0 5c1.0805,0 2.1334,-0.351 2.9978,-0.9987l-2.9978 -4.0013z"/>
   <line id="side.n" fill="none" stroke="#1F1A17" stroke-width="0.3527" stroke-linecap="round" stroke-linejoin="round" x1="-6" y1="7.9999" x2="12" y2= "7.9999" />
   <line id="side.h.1" fill="none" stroke="#1F1A17" stroke-width="0.3527" stroke-linecap="round" stroke-linejoin="round" stroke-dasharray="0.705400 1.058100" x1="-6" y1="-16.0001" x2="-6" y2= "7.9999" />
   <line id="side.b" fill="none" stroke="#1F1A17" stroke-width="0.3527" stroke-linecap="round" stroke-linejoin="round" x1="-6" y1="-16.0001" x2="12" y2= "7.9999" />
  </g>
  
 </g>
 <g id="angle">
  <metadata id="CorelCorpID_3Corel-Layer"/>
  <g id="angle.A">
   <polyline id="_54167112" fill="none" stroke="#1F1A17" stroke-width="0.3528" points="53.5,7.0598 51.5,8.5598 50,6.5598 "/>
   <rect id="_54166864" fill="#99AE6A" transform="matrix(-0.300001 -0.399999 0.399999 -0.300001 51.5 8.5598)" width="5" height="5"/>
   <circle id="_54054824" fill="#99AE6A" stroke="#1F1A17" stroke-width="0.3528" transform="matrix(-0.161273 -0.21503 0.21503 -0.161273 51.75 6.8098)" r="0.465"/>
  </g>
  <g id="tab">
   <circle id="tab.ref" fill="#ECE9D8" stroke="white" stroke-width="0.0762" cx="45" cy="80.6525" r="0.5"/>
   <path id="_53446872" fill="#969594" stroke="white" stroke-width="0.0762" mask="url(#id0)" d="M-1.1916 80.7268c38.7211,0 26.5569,0 38.7211,0 2.54,0 2.54,-2.46 5.08,-2.46l2.38 0c0.7933,0 1.5866,0 2.38,0 2.54,0 2.54,2.46 5.08,2.46l38.7211 0 0 0.5056 -38.7211 0c-2.54,0 -2.54,-2.46 -5.08,-2.46 -0.7934,0 -1.5867,0 -2.38,0l-2.38 0c-2.54,0 -2.54,2.46 -5.08,2.46 -12.1642,0 0,0 -38.7211,0l0 -0.5056z"/>
   <path id="tab.color" fill="#ECE9D8" stroke="#C2C1C1" stroke-width="0.1764" d="M-1.1811 80.6525c38.7211,0 26.5569,0 38.7211,0 2.54,0 2.54,-2.46 5.08,-2.46l2.38 0c0.7933,0 1.5866,0 2.38,0 2.54,0 2.54,2.46 5.08,2.46l38.7211 0 0 9.895 -92.3622 0c0,-3.4648 0,0 0,-9.895z"/>
   <polyline id="tab.handle.move-up" fill="none" stroke="#838281" stroke-width="0.3528" stroke-linecap="round" stroke-linejoin="round" mask="url(#id2)" points="43.75,80.6838 45,79.4338 46.25,80.6838 "/>
   <polyline id="tab.handle.move-down" fill="none" stroke="#969594" stroke-width="0.3528" stroke-linecap="round" stroke-linejoin="round" mask="url(#id4)" points="43.75,79.4338 45,80.6838 46.25,79.4338 "/>
  </g>
 </g>
</svg>
