<?xml version="1.0" encoding="UTF-8"?>
<!DOCTYPE svg PUBLIC "-//W3C//DTD SVG 1.1//EN" "http://www.w3.org/Graphics/SVG/1.1/DTD/svg11.dtd">
<!-- Creator: CorelDRAW -->
<svg xmlns="http://www.w3.org/2000/svg" xml:space="preserve" width="85mm" height="40mm" style="shape-rendering:geometricPrecision; text-rendering:geometricPrecision; image-rendering:optimizeQuality; fill-rule:evenodd; clip-rule:evenodd"
viewBox="0 0 85 40"
 xmlns:xlink="http://www.w3.org/1999/xlink">
 <defs>
  <style type="text/css">
   <![CDATA[
    .str0 {stroke:#1F1A17;stroke-width:0.0706}
    .str5 {stroke:#1F1A17;stroke-width:0.0762}
    .str6 {stroke:#FFF500;stroke-width:0.0762}
    .str1 {stroke:#1F1A17;stroke-width:0.1764}
    .str2 {stroke:#1F1A17;stroke-width:0.3527;stroke-linecap:round;stroke-linejoin:round}
    .str3 {stroke:#1F1A17;stroke-width:0.3528}
    .str4 {stroke:#1F1A17;stroke-width:0.3527;stroke-linecap:round;stroke-linejoin:round;stroke-dasharray:0.705400 1.058100}
    .fil1 {fill:none}
    .fil7 {fill:none;fill-rule:nonzero}
    .fil0 {fill:#00923F}
    .fil3 {fill:#0093DD}
    .fil2 {fill:#1F1A17}
    .fil5 {fill:#DA251D}
    .fil8 {fill:#FFF500}
    .fil6 {fill:white}
    .fil4 {fill:black}
   ]]>
  </style>
 </defs>
 <g id="bkg.layer">
  <metadata id="CorelCorpID_0Corel-Layer"/>
  <rect id="background" class="fil0 str0" width="85" height="40"/>
 </g>
 <g id="angles">
  <metadata id="CorelCorpID_1Corel-Layer"/>
  <g id="angle.D.right">
   <polyline id="_59681224" class="fil1 str1" points="39.1634,31.7315 39.1634,29.2315 36.6634,29.2315 "/>
   <rect id="_59678968" class="fil0 str1" x="36.6634" y="29.2315" width="2.5" height="2.5"/>
   <circle id="_59679152" class="fil2 str1" cx="37.9134" cy="30.4815" r="0.124987"/>
  </g>
  <g id="angle.D.left">
   <polyline id="_59677672" class="fil1 str1" points="34.1634,31.7315 34.1634,29.2315 36.6634,29.2315 "/>
   <rect id="_59676872" class="fil0 str1" x="34.1634" y="29.2315" width="2.5" height="2.5"/>
   <circle id="_59675528" class="fil2 str1" cx="35.4134" cy="30.4815" r="0.124987"/>
  </g>
  <g id="angle.C">
   <path id="_59674304" class="fil3 str2" d="M36.6634 7.7315l0 4.9997c-1.5737,0 -3.0565,-0.741 -4.0001,-1.9996l4.0001 -3.0001z"/>
   <path id="_59672736" class="fil4" d="M35.0375 10.0971c-0.2468,0 -0.43,0.2776 -0.479,0.5098l-0.2739 1.2753 0.1724 -0.0508 0.1016 -0.4699c0.0453,0.0671 0.1451,0.1035 0.2267,0.1035 0.2993,-0.0001 0.5279,-0.2703 0.5279,-0.5697 0.0001,-0.136 -0.0653,-0.2812 -0.2758,-0.292 0.1561,-0.0364 0.2722,-0.1506 0.2722,-0.3103 0,-0.0562 -0.0218,-0.1034 -0.0617,-0.1415 -0.0489,-0.0454 -0.1397,-0.0544 -0.2105,-0.0544l0.0001 0zm0.0925 0.8816c-0.0581,0.2703 -0.1361,0.4191 -0.3356,0.4191 -0.0834,0 -0.176,-0.0816 -0.176,-0.2558 0,-0.0399 0.0054,-0.0852 0.0163,-0.1342l0.0962 -0.4427c0.0308,-0.1469 0.0943,-0.4009 0.2866,-0.4009 0.0998,0 0.1397,0.0635 0.1397,0.1506 0,0.0943 -0.0326,0.2576 -0.176,0.2576 -0.0671,-0.0001 -0.1034,-0.0181 -0.1252,-0.0181 -0.0344,-0.0001 -0.0507,0.0199 -0.058,0.0544 -0.0018,0.0091 -0.0036,0.0163 -0.0036,0.0236 0,0.0216 0.0127,0.0308 0.0381,0.0308 0.0254,0 0.0671,-0.0181 0.1324,-0.0181 0.1143,-0.0001 0.1724,0.1342 0.1724,0.2576 0,0.0253 -0.0019,0.0526 -0.0073,0.0762l0 -0.0001z"/>
   <path id="_59671856" class="fil3 str2" d="M54.6634 31.7315l-5 0c0,-1.5736 0.7411,-3.0563 1.9997,-3.9999l3.0003 3.9999z"/>
   <path id="_59669360" class="fil4" d="M52.0185 28.9915c-0.3425,0 -0.5969,0.3854 -0.6649,0.7078l-0.3803 1.7704 0.2393 -0.0705 0.1411 -0.6523c0.0629,0.0932 0.2014,0.1437 0.3147,0.1437 0.4155,-0.0001 0.7329,-0.3753 0.7329,-0.7909 0,-0.1888 -0.0907,-0.3903 -0.3829,-0.4054 0.2167,-0.0505 0.3779,-0.2091 0.3779,-0.4307 0,-0.0781 -0.0302,-0.1435 -0.0857,-0.1964 -0.0679,-0.063 -0.1939,-0.0756 -0.2922,-0.0756l0.0001 -0.0001zm0.1285 1.224c-0.0807,0.3753 -0.189,0.5818 -0.466,0.5818 -0.1158,-0.0001 -0.2443,-0.1133 -0.2443,-0.3551 0.0001,-0.0554 0.0075,-0.1184 0.0227,-0.1863l0.1335 -0.6146c0.0428,-0.204 0.1309,-0.5565 0.3979,-0.5565 0.1386,-0.0001 0.1939,0.0881 0.1939,0.209 0,0.131 -0.0453,0.3576 -0.2443,0.3576 -0.0932,-0.0001 -0.1435,-0.0251 -0.1738,-0.0251 -0.0478,-0.0002 -0.0705,0.0277 -0.0806,0.0755 -0.0024,0.0126 -0.005,0.0227 -0.005,0.0327 0,0.0301 0.0176,0.0429 0.0529,0.0429 0.0353,-0.0001 0.0932,-0.0252 0.1838,-0.0252 0.1588,-0.0001 0.2393,0.1863 0.2393,0.3576 0.0001,0.0352 -0.0026,0.0731 -0.0101,0.1058l0.0001 -0.0001z"/>
  </g>
  <g id="angle.B">
   <path id="_59668376" class="fil5 str2" d="M36.6634 7.7315l0 5c1.0805,0 2.1334,-0.351 2.9978,-0.9987l-2.9978 -4.0013z"/>
   <path id="_59637704" class="fil5 str2" d="M4.6634 31.7315l5 0c0,-1.0805 -0.351,-2.1334 -0.9987,-2.9978l-4.0013 2.9978z"/>
   <path id="alpha" class="fil2" d="M8.2447 30.5863l0.3919 -0.5737 -0.1895 0 -0.2129 0.4128c0,-0.3477 -0.096,-0.4437 -0.3764,-0.4437 -0.5009,-0.0001 -0.7216,0.5346 -0.7216,0.911 0.0001,0.2259 0.0987,0.4231 0.3816,0.4231 0.1921,-0.0001 0.353,-0.1895 0.4673,-0.353 -0.0026,0.0259 -0.0027,0.052 -0.0027,0.0779 0.0001,0.0779 0.0104,0.1505 0.0416,0.2024 0.0286,0.0467 0.0623,0.0727 0.1219,0.0727 0.0624,-0.0001 0.1506,-0.0207 0.2181,-0.0727 0.0493,-0.039 0.1506,-0.1349 0.2207,-0.3011l-0.0623 -0.0363c-0.0675,0.1324 -0.1766,0.2752 -0.2336,0.2752 -0.0727,0 -0.0728,-0.135 -0.0728,-0.1973 0.0001,-0.1144 0.013,-0.2648 0.0286,-0.3972l0.0001 -0.0001zm-0.2466 0.1765c-0.1351,0.2181 -0.27,0.4128 -0.4413,0.4128 -0.1298,0 -0.1714,-0.1297 -0.1714,-0.2751 0.0001,-0.3011 0.1609,-0.828 0.4751,-0.828 0.1246,-0.0001 0.1608,0.1713 0.1608,0.3659 0.0001,0.1091 -0.0103,0.2259 -0.0233,0.3245l0.0001 -0.0001z"/>
   <path id="alpha_0" class="fil4" d="M38.2446 11.3486l0.3919 -0.5737 -0.1895 0 -0.2129 0.4128c0,-0.3477 -0.096,-0.4437 -0.3764,-0.4437 -0.5009,-0.0001 -0.7216,0.5346 -0.7216,0.911 0.0001,0.2259 0.0987,0.4231 0.3816,0.4231 0.1921,-0.0001 0.353,-0.1895 0.4673,-0.353 -0.0026,0.0259 -0.0027,0.052 -0.0027,0.0779 0.0001,0.0779 0.0104,0.1505 0.0416,0.2024 0.0286,0.0467 0.0623,0.0727 0.1219,0.0727 0.0624,-0.0001 0.1506,-0.0207 0.2181,-0.0727 0.0493,-0.039 0.1506,-0.1349 0.2207,-0.3011l-0.0623 -0.0363c-0.0675,0.1324 -0.1766,0.2752 -0.2336,0.2752 -0.0727,0 -0.0728,-0.135 -0.0728,-0.1973 0.0001,-0.1144 0.013,-0.2648 0.0286,-0.3972l0.0001 -0.0001zm-0.2466 0.1765c-0.1351,0.2181 -0.27,0.4128 -0.4413,0.4128 -0.1298,0 -0.1714,-0.1297 -0.1714,-0.2751 0.0001,-0.3011 0.1609,-0.828 0.4751,-0.828 0.1246,-0.0001 0.1608,0.1713 0.1608,0.3659 0.0001,0.1091 -0.0103,0.2259 -0.0233,0.3245l0.0001 -0.0001z"/>
  </g>
  <g id="angle.A">
   <polyline id="_59632928" class="fil1 str3" points="38.1634,9.7315 36.1634,11.2315 34.6634,9.2315 "/>
   <rect id="_59632128" class="fil0 str1" transform="matrix(-0.300001 -0.399999 0.399999 -0.300001 36.1634 11.2315)" width="5" height="5"/>
   <circle id="_59630712" class="fil2 str3" transform="matrix(-0.161273 -0.21503 0.21503 -0.161273 36.4134 9.4815)" r="0.465"/>
  </g>
 </g>
 <g id="sides">
  <metadata id="CorelCorpID_2Corel-Layer"/>
  <line id="side.n" class="fil1 str2" x1="36.6634" y1="31.7315" x2="54.6634" y2= "31.7315" />
  <line id="side.m" class="fil1 str2" x1="4.6634" y1="31.7315" x2="36.6634" y2= "31.7315" />
  <line id="side.h" class="fil1 str4" x1="36.6634" y1="10.8565" x2="36.6634" y2= "31.7315" />
  <line id="side.c" class="fil1 str2" x1="4.6634" y1="31.7315" x2="36.6634" y2= "7.7315" />
  <line id="side.b" class="fil1 str2" x1="36.6634" y1="7.7315" x2="54.6634" y2= "31.7315" />
  <g id="relations.group">
   <g id="relation.1.group">
    <path id="relation.1" class="fil6" d="M67.1605 8.8362c-0.0582,0.2392 -0.1746,0.5594 -0.346,0.818 -0.1811,0.2749 -0.3783,0.4915 -0.5335,0.4915 -0.1067,0 -0.1423,-0.1002 -0.1423,-0.2263 0,-0.3557 0.3169,-1.1543 0.8245,-1.1543 0.0776,0 0.1488,0.0258 0.1973,0.0711l0 0zm14.9189 -0.3672l-0.0688 -0.0123c-0.0516,0.1327 -0.1008,0.15 -0.1991,0.15l-0.629 -0.0001c0.0393,-0.1278 0.1842,-0.3022 0.4127,-0.4668 0.236,-0.1721 0.4178,-0.2826 0.4178,-0.5579 0,-0.3416 -0.2261,-0.4595 -0.4841,-0.4595 -0.3366,0 -0.5112,0.204 -0.5112,0.3317 0.0001,0.0835 0.0934,0.1229 0.1352,0.1229 0.0443,0 0.0614,-0.0246 0.0713,-0.0663 0.0393,-0.1672 0.1351,-0.3023 0.2875,-0.3023 0.1893,-0.0001 0.2433,0.1597 0.2433,0.3391 0,0.263 -0.1327,0.4104 -0.3465,0.5996 -0.3022,0.263 -0.408,0.4301 -0.4546,0.6218l0.0246 0.0245 1.0174 0 0.0835 -0.3244zm-1.4589 1.3081c-0.1099,0.1487 -0.3007,0.3783 -0.5173,0.3783 -0.2361,0 -0.2846,-0.194 -0.2846,-0.4235 0,-0.4204 0.2425,-0.9668 0.54,-0.9668 0.1035,0 0.1746,0.0646 0.194,0.2586 0.0065,0.0582 0.0356,0.097 0.0938,0.097 0.0776,0 0.2069,-0.0743 0.2069,-0.181 0.0001,-0.165 -0.1746,-0.2878 -0.4171,-0.2878 -0.5755,-0.0001 -0.9377,0.6143 -0.9377,1.1446 0,0.3944 0.2361,0.5174 0.4624,0.5174 0.2393,0 0.5141,-0.1035 0.7372,-0.4753l-0.0776 -0.0615zm-3.8608 -0.5077l0 0.1876 0.7954 0 0 0.7953 0.1877 0 0 -0.7953 0.7953 0 0 -0.1876 -0.7953 0 0 -0.7954 -0.1877 0 0 0.7954 -0.7954 0zm-0.9879 -0.8004l-0.0689 -0.0123c-0.0516,0.1327 -0.1008,0.15 -0.199,0.15l-0.6291 -0.0001c0.0393,-0.1278 0.1843,-0.3022 0.4128,-0.4668 0.2359,-0.1721 0.4178,-0.2826 0.4178,-0.5579 0,-0.3416 -0.2261,-0.4595 -0.4841,-0.4595 -0.3366,0 -0.5112,0.204 -0.5112,0.3317 0,0.0835 0.0934,0.1229 0.1352,0.1229 0.0442,0 0.0614,-0.0246 0.0712,-0.0663 0.0394,-0.1672 0.1352,-0.3023 0.2876,-0.3023 0.1893,-0.0001 0.2432,0.1597 0.2432,0.3391 0,0.263 -0.1327,0.4104 -0.3465,0.5996 -0.3022,0.263 -0.4079,0.4301 -0.4546,0.6218l0.0247 0.0245 1.0173 0 0.0836 -0.3244zm-1.5842 0.6193c0,0.2329 -0.1941,1.1124 -0.6694,1.1124 -0.1649,0 -0.2651,-0.1164 -0.2651,-0.2781 0,-0.1552 0.0679,-0.3783 0.1714,-0.5658 0.1455,-0.2588 0.388,-0.5368 0.5884,-0.5368 0.1197,0 0.1746,0.0841 0.1746,0.2684l0.0001 -0.0001zm-0.4915 -1.1963l-0.0161 -0.0161 -0.5789 0.0775 -0.0193 0.0744 0.1843 0.0226c0.0808,0.0097 0.0937,0.0324 0.0646,0.1585l-0.4753 2.0662 0.1164 0 0.1002 -0.1877c0.0583,0.1359 0.2231,0.2265 0.4074,0.2265 0.3784,0 0.6532,-0.2522 0.8116,-0.5368 0.1618,-0.2846 0.2134,-0.5723 0.2134,-0.7178 0.0001,-0.2393 -0.1067,-0.4074 -0.346,-0.4074 -0.2457,-0.0001 -0.5658,0.2231 -0.8148,0.6661l-0.0064 -0.0001 0.3589 -1.4259zm-1.9736 1.9206l0 -0.1875 -1.7784 0 0 0.1875 1.7784 0zm0 -0.7113l0 -0.1875 -1.7784 0 0 0.1875 1.7784 0zm-2.9358 -0.6323l-0.0688 -0.0123c-0.0516,0.1327 -0.1008,0.15 -0.199,0.15l-0.6291 -0.0001c0.0393,-0.1278 0.1843,-0.3022 0.4128,-0.4668 0.2359,-0.1721 0.4178,-0.2826 0.4178,-0.5579 0,-0.3416 -0.2261,-0.4595 -0.4842,-0.4595 -0.3366,0 -0.5111,0.204 -0.5111,0.3317 0,0.0835 0.0934,0.1229 0.1352,0.1229 0.0442,0 0.0614,-0.0246 0.0712,-0.0663 0.0394,-0.1672 0.1352,-0.3023 0.2875,-0.3023 0.1893,-0.0001 0.2433,0.1597 0.2433,0.3391 0,0.263 -0.1327,0.4104 -0.3465,0.5996 -0.3022,0.263 -0.4079,0.4301 -0.4546,0.6218l0.0246 0.0245 1.0174 0 0.0835 -0.3244zm-1.5777 0.2087l-0.0162 0.042c-0.0549,-0.0388 -0.1487,-0.0678 -0.236,-0.0678 -0.7696,-0.0001 -1.1382,0.8504 -1.1382,1.2772 0,0.194 0.0905,0.3848 0.3104,0.3848 0.346,0 0.6467,-0.401 0.8342,-0.7308l0.0065 0 -0.1099 0.3686c-0.0679,0.2295 -0.0324,0.3622 0.1422,0.3622 0.2458,0 0.4268,-0.2199 0.5368,-0.4656l-0.0776 -0.0453c-0.0582,0.1131 -0.2005,0.3427 -0.291,0.3427 -0.0647,0 -0.0615,-0.0743 -0.0324,-0.1778l0.3428 -1.2902 -0.2716 0z"/>
    <rect id="relation.1.sensitive.area" class="fil6" x="65.8186" y="7.1224" width="16.2608" height="3.1915" opacity="0"/>
   </g>
   <g id="relation.2.group">
    <path id="relation.2" class="fil6" d="M67.2025 14.8457c0,0.2328 -0.194,1.1124 -0.6693,1.1124 -0.1649,-0.0001 -0.2652,-0.1164 -0.2652,-0.2781 0.0001,-0.1553 0.0679,-0.3783 0.1714,-0.5659 0.1455,-0.2587 0.388,-0.5367 0.5885,-0.5367 0.1196,0 0.1746,0.0841 0.1746,0.2684l0 -0.0001zm9.7993 1.1867c0.0938,-0.3299 0.1487,-0.5044 0.2328,-0.7049 0.1196,-0.278 0.43,-0.7501 0.6919,-0.7501 0.1132,0 0.1423,0.1035 0.1067,0.2296l-0.278 0.9473c-0.0517,0.1811 -0.0098,0.3169 0.1648,0.3169 0.2426,0 0.4236,-0.2198 0.5336,-0.4656l-0.0776 -0.0452c-0.0582,0.1131 -0.2005,0.3427 -0.2911,0.3427 -0.0646,0 -0.0614,-0.0744 -0.0323,-0.1778l0.2522 -0.8473c0.0745,-0.2554 0.0356,-0.4687 -0.2296,-0.4687 -0.3103,-0.0001 -0.6466,0.3427 -0.8406,0.721l-0.0097 -0.0001 0.2102 -0.7048 -0.0162 -0.0162 -0.5917 0.0905 -0.0194 0.0777 0.2004 0.0162c0.0776,0.0064 0.0776,0.0517 0.0485,0.1552l-0.3395 1.3224 0.2846 -0.0388zm-1.6551 -0.9119c0,0.1132 0.0905,0.2038 0.2036,0.2038 0.1132,0 0.2037,-0.0905 0.2037,-0.2037 0.0001,-0.1132 -0.0905,-0.2037 -0.2037,-0.2037 -0.1131,-0.0001 -0.2037,0.0905 -0.2037,0.2037l0.0001 -0.0001zm-1.1164 -0.5269c-0.0582,0.2392 -0.1747,0.5593 -0.346,0.818 -0.181,0.2749 -0.3783,0.4915 -0.5335,0.4915 -0.1067,0 -0.1423,-0.1002 -0.1423,-0.2263 0.0001,-0.3558 0.3169,-1.1544 0.8245,-1.1544 0.0777,0 0.1487,0.0259 0.1972,0.0712l0.0001 0zm0.0485 -0.1585l-0.0161 0.042c-0.055,-0.0388 -0.1489,-0.0678 -0.2362,-0.0678 -0.7695,-0.0001 -1.1381,0.8503 -1.1381,1.2772 0,0.1939 0.0905,0.3847 0.3104,0.3847 0.346,0 0.6467,-0.4009 0.8342,-0.7307l0.0065 0 -0.1099 0.3686c-0.0679,0.2295 -0.0324,0.3621 0.1422,0.3621 0.2458,0 0.4268,-0.2198 0.5368,-0.4656l-0.0776 -0.0452c-0.0582,0.1131 -0.2005,0.3427 -0.2911,0.3427 -0.0645,0 -0.0614,-0.0744 -0.0323,-0.1778l0.3428 -1.2902 -0.2716 0zm-2.5563 1.1349l0 -0.1875 -1.7784 0 0 0.1875 1.7784 0zm0 -0.7113l0 -0.1875 -1.7784 0 0 0.1875 1.7784 0zm-2.9358 -0.5901l-0.0688 -0.0123c-0.0516,0.1328 -0.1008,0.15 -0.199,0.15l-0.6291 -0.0001c0.0393,-0.1278 0.1843,-0.3022 0.4128,-0.4668 0.2359,-0.172 0.4178,-0.2826 0.4178,-0.5578 0,-0.3417 -0.2261,-0.4596 -0.4842,-0.4596 -0.3366,0 -0.5111,0.204 -0.5111,0.3318 0,0.0835 0.0934,0.1228 0.1352,0.1228 0.0442,0 0.0614,-0.0245 0.0712,-0.0663 0.0394,-0.1671 0.1352,-0.3023 0.2875,-0.3023 0.1893,-0.0001 0.2433,0.1598 0.2433,0.3392 0,0.2629 -0.1327,0.4103 -0.3465,0.5996 -0.3022,0.2629 -0.4079,0.43 -0.4546,0.6217l0.0246 0.0246 1.0174 0 0.0835 -0.3245zm-2.0757 -0.6192l-0.0161 -0.0162 -0.5788 0.0776 -0.0194 0.0743 0.1843 0.0227c0.0808,0.0097 0.0937,0.0324 0.0646,0.1585l-0.4753 2.0661 0.1164 0 0.1003 -0.1876c0.0582,0.1358 0.2231,0.2264 0.4074,0.2264 0.3783,0 0.6531,-0.2522 0.8116,-0.5367 0.1617,-0.2846 0.2134,-0.5723 0.2134,-0.7178 0,-0.2393 -0.1067,-0.4074 -0.346,-0.4074 -0.2457,-0.0001 -0.5659,0.2231 -0.8148,0.666l-0.0064 0 0.3588 -1.4259z"/>
    <rect id="relation.2.sensitive.area" class="fil6" x="65.8703" y="12.922" width="12.5833" height="3.1492" opacity="0"/>
   </g>
   <g id="relation.3.group">
    <path id="relation.3" class="fil6" d="M67.2855 21.2918c-0.11,0.1487 -0.3008,0.3784 -0.5174,0.3784 -0.2361,-0.0001 -0.2846,-0.194 -0.2846,-0.4236 0,-0.4204 0.2425,-0.9668 0.54,-0.9668 0.1035,0 0.1746,0.0647 0.194,0.2587 0.0065,0.0581 0.0356,0.097 0.0938,0.097 0.0776,-0.0001 0.2069,-0.0744 0.2069,-0.1811 0,-0.165 -0.1746,-0.2878 -0.4171,-0.2878 -0.5755,0 -0.9377,0.6144 -0.9377,1.1447 0,0.3944 0.236,0.5173 0.4624,0.5173 0.2393,0 0.5141,-0.1035 0.7372,-0.4753l-0.0775 -0.0615zm9.713 0.498c0.0938,-0.3299 0.1455,-0.5174 0.2134,-0.6887 0.11,-0.2814 0.4268,-0.7663 0.6952,-0.7663 0.0971,0 0.1487,0.0711 0.097,0.2716l-0.2392 0.9053 -0.0841 0.3169 0.2813 -0.0388c0.0938,-0.3299 0.1455,-0.5174 0.2296,-0.7146 0.1196,-0.2749 0.4138,-0.7404 0.6854,-0.7404 0.1068,0 0.152,0.0873 0.11,0.2263l-0.278 0.9506c-0.0583,0.2004 0.0064,0.3169 0.168,0.3169 0.2362,0 0.4171,-0.2199 0.5271,-0.4656l-0.0776 -0.0453c-0.0582,0.1131 -0.2005,0.3428 -0.291,0.3428 -0.0646,-0.0001 -0.0615,-0.0744 -0.0324,-0.1779l0.2491 -0.8472c0.0743,-0.2554 0.0322,-0.4688 -0.2361,-0.4688 -0.291,0 -0.5853,0.2684 -0.8181,0.6855l-0.0128 0 0.0646 -0.2037c0.097,-0.3105 0.0323,-0.4818 -0.1941,-0.4818 -0.2974,0 -0.5981,0.2781 -0.8212,0.6855l-0.0097 0 0.2037 -0.6693 -0.0161 -0.0162 -0.5853 0.0905 -0.0194 0.0777 0.1973 0.0161c0.0776,0.0065 0.071,0.0518 0.0452,0.1552l-0.3331 1.3225 0.2813 -0.0388zm-1.6518 -0.9119c0,0.1132 0.0905,0.2038 0.2036,0.2038 0.1132,0 0.2037,-0.0906 0.2037,-0.2037 0.0001,-0.1132 -0.0905,-0.2037 -0.2037,-0.2037 -0.1131,-0.0001 -0.2037,0.0905 -0.2037,0.2037l0.0001 -0.0001zm-1.1164 -0.527c-0.0582,0.2392 -0.1747,0.5594 -0.346,0.8181 -0.181,0.2748 -0.3783,0.4915 -0.5335,0.4915 -0.1067,-0.0001 -0.1423,-0.1003 -0.1423,-0.2264 0.0001,-0.3557 0.3169,-1.1543 0.8245,-1.1543 0.0777,0 0.1487,0.0259 0.1972,0.0711l0.0001 0zm0.0485 -0.1584l-0.0161 0.0419c-0.055,-0.0387 -0.1489,-0.0678 -0.2362,-0.0678 -0.7695,0 -1.1381,0.8504 -1.1381,1.2772 0,0.194 0.0905,0.3848 0.3104,0.3848 0.346,0 0.6467,-0.4009 0.8342,-0.7308l0.0065 0 -0.1099 0.3686c-0.0679,0.2295 -0.0324,0.3622 0.1422,0.3622 0.2458,0 0.4268,-0.2199 0.5368,-0.4656l-0.0776 -0.0453c-0.0582,0.1131 -0.2005,0.3428 -0.2911,0.3428 -0.0645,-0.0001 -0.0614,-0.0744 -0.0323,-0.1779l0.3428 -1.2901 -0.2716 0zm-2.5563 1.1348l0 -0.1875 -1.7784 0 0 0.1875 1.7784 0zm0 -0.7113l0 -0.1875 -1.7784 0 0 0.1875 1.7784 0zm-2.9781 -0.59l-0.0688 -0.0123c-0.0516,0.1327 -0.1008,0.15 -0.1991,0.15l-0.6291 -0.0001c0.0393,-0.1278 0.1843,-0.3022 0.4128,-0.4668 0.236,-0.1721 0.4178,-0.2826 0.4178,-0.5579 0,-0.3416 -0.2261,-0.4595 -0.4841,-0.4595 -0.3366,0 -0.5112,0.204 -0.5112,0.3317 0.0001,0.0835 0.0934,0.1229 0.1352,0.1229 0.0443,0 0.0614,-0.0246 0.0713,-0.0663 0.0393,-0.1672 0.1351,-0.3023 0.2875,-0.3023 0.1892,-0.0001 0.2433,0.1597 0.2433,0.3391 0,0.263 -0.1327,0.4104 -0.3465,0.5996 -0.3023,0.263 -0.408,0.4301 -0.4546,0.6218l0.0245 0.0245 1.0174 0 0.0836 -0.3244z"/>
    <rect id="relation.3.sensitive.area" class="fil6" x="66.1634" y="18.6794" width="13.2408" height="3.1492" opacity="0"/>
   </g>
   <g id="relation.4.group">
    <path id="relation.4" class="fil6" d="M66.5741 25.164l-0.0162 -0.0161 -0.582 0.0775 -0.0194 0.0744 0.1843 0.0226c0.0808,0.0097 0.0937,0.0324 0.0646,0.1585l-0.472 2.105 0.2813 -0.0388c0.0873,-0.3299 0.1358,-0.5077 0.2166,-0.7114 0.097,-0.2522 0.4171,-0.7437 0.6984,-0.7437 0.1035,0 0.1423,0.0938 0.1035,0.2264l-0.2651 0.9182c-0.0615,0.2134 -0.0162,0.3493 0.1681,0.3493 0.2231,0 0.4042,-0.2199 0.5141,-0.4656l-0.0776 -0.0453c-0.0582,0.1131 -0.2005,0.3427 -0.291,0.3427 -0.0647,0 -0.0647,-0.0743 -0.0324,-0.1778l0.2555 -0.8472c0.0776,-0.2554 0.0356,-0.4688 -0.2264,-0.4688 -0.3071,-0.0001 -0.6499,0.333 -0.8568,0.721l-0.0097 0 0.3622 -1.4809zm11.486 2.3831c0.0937,-0.3299 0.1487,-0.5044 0.2327,-0.7049 0.1197,-0.2781 0.4301,-0.7502 0.692,-0.7502 0.1132,0 0.1422,0.1035 0.1067,0.2296l-0.2781 0.9474c-0.0517,0.181 -0.0097,0.3169 0.1649,0.3169 0.2425,0 0.4236,-0.2199 0.5335,-0.4656l-0.0776 -0.0453c-0.0581,0.1131 -0.2005,0.3427 -0.291,0.3427 -0.0647,0 -0.0614,-0.0743 -0.0323,-0.1778l0.2522 -0.8472c0.0744,-0.2554 0.0356,-0.4688 -0.2296,-0.4688 -0.3103,-0.0001 -0.6467,0.3427 -0.8407,0.721l-0.0096 0 0.2102 -0.7049 -0.0162 -0.0162 -0.5918 0.0905 -0.0193 0.0777 0.2004 0.0162c0.0776,0.0064 0.0776,0.0517 0.0485,0.1552l-0.3395 1.3225 0.2846 -0.0388zm-1.6551 -0.912c0,0.1133 0.0904,0.2038 0.2036,0.2038 0.1132,0 0.2037,-0.0905 0.2037,-0.2037 0.0001,-0.1132 -0.0905,-0.2037 -0.2037,-0.2037 -0.1131,0 -0.2037,0.0906 -0.2037,0.2037l0.0001 -0.0001zm-3.2166 0.912c0.0938,-0.3299 0.1455,-0.5174 0.2134,-0.6887 0.11,-0.2814 0.4268,-0.7664 0.6952,-0.7664 0.0971,0 0.1487,0.0712 0.097,0.2716l-0.2392 0.9054 -0.084 0.3169 0.2812 -0.0388c0.0938,-0.3299 0.1455,-0.5174 0.2296,-0.7146 0.1196,-0.2749 0.4138,-0.7405 0.6854,-0.7405 0.1068,0 0.152,0.0873 0.11,0.2264l-0.278 0.9506c-0.0583,0.2004 0.0064,0.3169 0.168,0.3169 0.2362,0 0.4171,-0.2199 0.5271,-0.4656l-0.0776 -0.0453c-0.0582,0.1131 -0.2005,0.3427 -0.291,0.3427 -0.0646,0 -0.0615,-0.0743 -0.0324,-0.1778l0.2491 -0.8472c0.0743,-0.2554 0.0322,-0.4688 -0.2361,-0.4688 -0.291,-0.0001 -0.5853,0.2684 -0.8181,0.6855l-0.0128 0 0.0646 -0.2037c0.097,-0.3105 0.0323,-0.4818 -0.1941,-0.4818 -0.2974,-0.0001 -0.5981,0.2781 -0.8212,0.6855l-0.0097 0 0.2037 -0.6694 -0.0161 -0.0162 -0.5853 0.0905 -0.0194 0.0777 0.1973 0.0162c0.0776,0.0064 0.071,0.0517 0.0452,0.1552l-0.3331 1.3225 0.2813 -0.0388zm-1.4659 -0.4625l0 -0.1875 -1.7784 0 0 0.1875 1.7784 0zm0 -0.7113l0 -0.1875 -1.7784 0 0 0.1875 1.7784 0zm-2.9781 -0.5899l-0.0688 -0.0123c-0.0516,0.1327 -0.1008,0.1499 -0.1991,0.1499l-0.6291 0c0.0393,-0.1278 0.1843,-0.3022 0.4128,-0.4669 0.236,-0.172 0.4178,-0.2826 0.4178,-0.5578 0,-0.3417 -0.2261,-0.4595 -0.4841,-0.4595 -0.3366,0 -0.5112,0.2039 -0.5112,0.3317 0.0001,0.0835 0.0934,0.1229 0.1352,0.1229 0.0443,0 0.0614,-0.0246 0.0713,-0.0664 0.0393,-0.1671 0.1351,-0.3022 0.2875,-0.3022 0.1892,-0.0001 0.2433,0.1597 0.2433,0.3391 0,0.2629 -0.1327,0.4104 -0.3465,0.5996 -0.3023,0.2629 -0.408,0.4301 -0.4546,0.6217l0.0245 0.0246 1.0174 0 0.0836 -0.3244z"/>
    <rect id="relation.4.sensitive.area" class="fil6" x="65.7334" y="24.4368" width="13.7784" height="3.14914" opacity="0"/>
   </g>
   <g id="relation.5.group">
    <path id="relation.5" class="fil6" d="M65.2128 31.652c0,0.2329 -0.194,1.1124 -0.6693,1.1124 -0.1649,0 -0.2651,-0.1164 -0.2651,-0.278 0,-0.1553 0.0679,-0.3784 0.1713,-0.5659 0.1455,-0.2587 0.388,-0.5367 0.5885,-0.5367 0.1197,0 0.1746,0.084 0.1746,0.2683l0 -0.0001zm12.3258 -1.1962l-0.0162 -0.0162 -0.582 0.0776 -0.0195 0.0743 0.1844 0.0226c0.0808,0.0097 0.0937,0.0324 0.0646,0.1585l-0.472 2.105 0.2813 -0.0388c0.0873,-0.3299 0.1357,-0.5077 0.2166,-0.7113 0.097,-0.2523 0.4171,-0.7437 0.6984,-0.7437 0.1035,0 0.1422,0.0937 0.1034,0.2263l-0.2651 0.9182c-0.0614,0.2135 -0.0162,0.3493 0.1681,0.3493 0.2232,0 0.4042,-0.2199 0.5142,-0.4656l-0.0776 -0.0453c-0.0582,0.1131 -0.2005,0.3428 -0.2911,0.3428 -0.0646,-0.0001 -0.0646,-0.0744 -0.0323,-0.1779l0.2555 -0.8472c0.0776,-0.2554 0.0355,-0.4688 -0.2264,-0.4688 -0.3071,0 -0.6499,0.3331 -0.8568,0.7211l-0.0097 -0.0001 0.3622 -1.4808zm-2.1919 1.4711c0,0.1132 0.0905,0.2038 0.2036,0.2038 0.1132,0 0.2037,-0.0906 0.2037,-0.2037 0.0001,-0.1132 -0.0905,-0.2037 -0.2037,-0.2037 -0.1131,-0.0001 -0.2037,0.0905 -0.2037,0.2037l0.0001 -0.0001zm-1.1164 -0.527c-0.0582,0.2392 -0.1747,0.5594 -0.346,0.8181 -0.181,0.2748 -0.3783,0.4915 -0.5335,0.4915 -0.1067,-0.0001 -0.1423,-0.1003 -0.1423,-0.2264 0.0001,-0.3557 0.3169,-1.1543 0.8245,-1.1543 0.0777,0 0.1487,0.0259 0.1972,0.0711l0.0001 0zm0.0485 -0.1584l-0.0161 0.0419c-0.055,-0.0387 -0.1489,-0.0678 -0.2362,-0.0678 -0.7695,0 -1.1381,0.8504 -1.1381,1.2772 0,0.194 0.0905,0.3848 0.3104,0.3848 0.346,0 0.6467,-0.4009 0.8342,-0.7308l0.0065 0 -0.1099 0.3686c-0.0679,0.2295 -0.0324,0.3622 0.1422,0.3622 0.2458,0 0.4268,-0.2199 0.5368,-0.4656l-0.0776 -0.0453c-0.0582,0.1131 -0.2005,0.3428 -0.2911,0.3428 -0.0645,-0.0001 -0.0614,-0.0744 -0.0323,-0.1779l0.3428 -1.2901 -0.2716 0zm-2.5563 1.1348l0 -0.1875 -1.7784 0 0 0.1875 1.7784 0zm0 -0.7113l0 -0.1875 -1.7784 0 0 0.1875 1.7784 0zm-2.9977 0.6758c-0.11,0.1488 -0.3007,0.3784 -0.5174,0.3784 -0.236,-0.0001 -0.2845,-0.194 -0.2845,-0.4236 0,-0.4204 0.2425,-0.9668 0.54,-0.9668 0.1035,0 0.1746,0.0647 0.194,0.2587 0.0065,0.0581 0.0355,0.097 0.0937,0.097 0.0777,-0.0001 0.207,-0.0744 0.207,-0.1811 0,-0.165 -0.1746,-0.2878 -0.4171,-0.2878 -0.5755,0 -0.9377,0.6144 -0.9377,1.1447 0,0.3944 0.236,0.5173 0.4624,0.5173 0.2392,0 0.5141,-0.1035 0.7372,-0.4753l-0.0776 -0.0615zm-2.4376 -0.4139c0,0.1132 0.0905,0.2038 0.2037,0.2038 0.1132,0 0.2037,-0.0906 0.2037,-0.2037 0,-0.1132 -0.0906,-0.2037 -0.2037,-0.2037 -0.1132,-0.0001 -0.2037,0.0905 -0.2037,0.2037l0 -0.0001zm-1.5659 -1.4711l-0.0161 -0.0162 -0.5788 0.0776 -0.0194 0.0743 0.1843 0.0226c0.0808,0.0097 0.0938,0.0324 0.0647,0.1585l-0.4753 2.0662 0.1163 0 0.1003 -0.1876c0.0582,0.1358 0.2231,0.2264 0.4074,0.2264 0.3783,0 0.6531,-0.2522 0.8116,-0.5368 0.1617,-0.2845 0.2134,-0.5723 0.2134,-0.7178 0,-0.2392 -0.1067,-0.4074 -0.346,-0.4074 -0.2457,0 -0.5658,0.2231 -0.8148,0.6661l-0.0064 -0.0001 0.3588 -1.4258z"/>
    <rect id="relation.5.sensitive.area" class="fil6" x="63.8807" y="30.4558" width="14.5341" height="2.42183" opacity="0"/>
   </g>
  </g>
 </g>
 <g id="labels">
  <metadata id="CorelCorpID_3Corel-Layer"/>
  <path id="label.n" class="fil6" d="M45.0798 30.0237c0.0938,-0.3299 0.1487,-0.5044 0.2328,-0.7049 0.1197,-0.2781 0.43,-0.7502 0.6919,-0.7502 0.1133,0 0.1423,0.1035 0.1067,0.2296l-0.278 0.9474c-0.0517,0.181 -0.0097,0.3169 0.1649,0.3169 0.2425,0 0.4236,-0.2199 0.5335,-0.4656l-0.0776 -0.0453c-0.0581,0.1131 -0.2005,0.3427 -0.291,0.3427 -0.0647,0 -0.0615,-0.0743 -0.0324,-0.1778l0.2523 -0.8472c0.0744,-0.2554 0.0355,-0.4688 -0.2296,-0.4688 -0.3104,-0.0001 -0.6467,0.3427 -0.8407,0.721l-0.0096 0 0.2101 -0.7049 -0.0162 -0.0162 -0.5917 0.0905 -0.0193 0.0777 0.2004 0.0162c0.0776,0.0064 0.0776,0.0517 0.0484,0.1552l-0.3394 1.3225 0.2845 -0.0388z"/>
  <path id="label.m" class="fil6" d="M19.6012 30.0237c0.0938,-0.3299 0.1455,-0.5173 0.2134,-0.6887 0.11,-0.2813 0.4268,-0.7663 0.6952,-0.7663 0.0971,0 0.1487,0.0711 0.097,0.2716l-0.2392 0.9053 -0.084 0.3169 0.2812 -0.0388c0.0938,-0.3299 0.1455,-0.5173 0.2296,-0.7146 0.1196,-0.2749 0.4138,-0.7404 0.6854,-0.7404 0.1068,0 0.152,0.0873 0.11,0.2263l-0.278 0.9506c-0.0583,0.2004 0.0064,0.3169 0.168,0.3169 0.2362,0 0.4171,-0.2198 0.5271,-0.4656l-0.0776 -0.0452c-0.0582,0.1131 -0.2005,0.3427 -0.291,0.3427 -0.0646,0 -0.0615,-0.0744 -0.0324,-0.1778l0.2491 -0.8473c0.0743,-0.2554 0.0322,-0.4687 -0.2361,-0.4687 -0.291,-0.0001 -0.5853,0.2683 -0.8181,0.6854l-0.0128 0 0.0646 -0.2037c0.097,-0.3104 0.0323,-0.4817 -0.1941,-0.4817 -0.2974,-0.0001 -0.5981,0.278 -0.8212,0.6854l-0.0097 0 0.2037 -0.6693 -0.0161 -0.0162 -0.5853 0.0905 -0.0194 0.0777 0.1973 0.0162c0.0776,0.0064 0.071,0.0517 0.0452,0.1552l-0.3331 1.3224 0.2813 -0.0388z"/>
  <path id="label.h" class="fil6" d="M34.1453 18.5287l-0.0162 -0.0161 -0.582 0.0775 -0.0195 0.0744 0.1844 0.0226c0.0808,0.0097 0.0937,0.0324 0.0646,0.1585l-0.472 2.105 0.2813 -0.0388c0.0873,-0.3299 0.1357,-0.5077 0.2166,-0.7114 0.097,-0.2522 0.4171,-0.7437 0.6984,-0.7437 0.1035,0 0.1423,0.0938 0.1034,0.2264l-0.2651 0.9182c-0.0614,0.2134 -0.0162,0.3493 0.1681,0.3493 0.2232,0 0.4042,-0.2199 0.5142,-0.4656l-0.0776 -0.0453c-0.0582,0.1131 -0.2005,0.3427 -0.2911,0.3427 -0.0646,0 -0.0646,-0.0743 -0.0323,-0.1778l0.2555 -0.8472c0.0776,-0.2554 0.0355,-0.4688 -0.2264,-0.4688 -0.3071,-0.0001 -0.6499,0.333 -0.8568,0.721l-0.0097 0 0.3622 -1.4809z"/>
  <path id="label.c" class="fil6" d="M19.4831 18.1506c-0.11,0.1487 -0.3007,0.3783 -0.5174,0.3783 -0.236,0 -0.2845,-0.194 -0.2845,-0.4236 0,-0.4204 0.2425,-0.9668 0.54,-0.9668 0.1035,0 0.1746,0.0647 0.194,0.2587 0.0065,0.0581 0.0355,0.097 0.0937,0.097 0.0777,-0.0001 0.207,-0.0744 0.207,-0.1811 0,-0.165 -0.1746,-0.2877 -0.4171,-0.2877 -0.5755,-0.0001 -0.9377,0.6143 -0.9377,1.1446 0,0.3944 0.236,0.5173 0.4624,0.5173 0.2393,0 0.5141,-0.1034 0.7372,-0.4753l-0.0776 -0.0614z"/>
  <path id="label.b" class="fil6" d="M48.171 17.975c0,0.2329 -0.194,1.1124 -0.6693,1.1124 -0.1649,0 -0.2651,-0.1164 -0.2651,-0.278 0,-0.1553 0.0679,-0.3784 0.1713,-0.5659 0.1456,-0.2587 0.388,-0.5367 0.5885,-0.5367 0.1197,0 0.1746,0.084 0.1746,0.2683l0 -0.0001zm-0.4914 -1.1962l-0.0162 -0.0162 -0.5788 0.0776 -0.0194 0.0743 0.1844 0.0226c0.0807,0.0097 0.0937,0.0324 0.0646,0.1585l-0.4753 2.0662 0.1164 0 0.1002 -0.1876c0.0582,0.1358 0.2231,0.2264 0.4074,0.2264 0.3783,0 0.6531,-0.2522 0.8116,-0.5368 0.1617,-0.2845 0.2134,-0.5723 0.2134,-0.7178 0,-0.2392 -0.1067,-0.4074 -0.346,-0.4074 -0.2457,0 -0.5658,0.2231 -0.8148,0.6661l-0.0065 -0.0001 0.359 -1.4258z"/>
  <g id="label.a">
   <path id="_49136720" class="fil6" d="M30.1452 33.5848c-0.0582,0.2392 -0.1747,0.5594 -0.346,0.818 -0.181,0.2749 -0.3783,0.4915 -0.5335,0.4915 -0.1067,0 -0.1423,-0.1002 -0.1423,-0.2263 0.0001,-0.3557 0.3169,-1.1543 0.8245,-1.1543 0.0777,0 0.1487,0.0258 0.1972,0.0711l0.0001 0zm0.0485 -0.1585l-0.0161 0.042c-0.055,-0.0388 -0.1489,-0.0678 -0.2362,-0.0678 -0.7695,-0.0001 -1.1381,0.8504 -1.1381,1.2772 0,0.194 0.0905,0.3848 0.3104,0.3848 0.346,0 0.6467,-0.401 0.8342,-0.7308l0.0065 0 -0.1099 0.3686c-0.0679,0.2295 -0.0324,0.3622 0.1422,0.3622 0.2458,0 0.4268,-0.2199 0.5368,-0.4656l-0.0776 -0.0453c-0.0582,0.1131 -0.2005,0.3427 -0.2911,0.3427 -0.0645,0 -0.0614,-0.0743 -0.0323,-0.1778l0.3428 -1.2902 -0.2716 0z"/>
   <g>
    <line id="_48743496" class="fil7 str5" x1="32.1472" y1="34.2315" x2="54.6634" y2= "34.2315" />
    <polygon id="_487434961" class="fil2" points="54.662,34.2315 53.7403,33.7706 53.7403,34.6924 "/>
   </g>
   <g>
    <line class="fil7 str5" x1="4.6634" y1="34.2315" x2="27.3632" y2= "34.2315" />
    <polygon id="1" class="fil2" points="4.6648,34.2315 5.5865,33.7706 5.5865,34.6924 "/>
   </g>
   <line class="fil1 str0" x1="54.6634" y1="35.4815" x2="54.6634" y2= "32.9815" />
   <line class="fil1 str0" x1="4.6634" y1="35.4815" x2="4.6634" y2= "32.9815" />
  </g>
  <g id="vertex.D">
   <path id="label.D" class="fil6" d="M36.8186 33.2659c0.6725,0.0129 0.7307,0.4657 0.7307,0.7244 0.0001,0.2779 -0.0647,0.5432 -0.2102,0.7824 -0.1842,0.3039 -0.4624,0.5045 -0.9991,0.5045 -0.1778,-0.0002 -0.2975,-0.0227 -0.2651,-0.165l0.3912 -1.7267c0.0259,-0.1099 0.0711,-0.1195 0.3525,-0.1195l0 -0.0001zm-1.3872 2.1244l0.9927 0c0.6467,0 1.0217,-0.2328 1.2545,-0.5852 0.1844,-0.2782 0.2167,-0.5497 0.2167,-0.7437 0,-0.2619 -0.0938,-0.5206 -0.2781,-0.6758 -0.1875,-0.1584 -0.4785,-0.2328 -0.8375,-0.2328l-0.8697 0 -0.0194 0.0936 0.1907 0.0163c0.0744,0.0063 0.0906,0.0518 0.0679,0.1585l-0.3847 1.7006c-0.0226,0.1068 -0.055,0.1489 -0.1326,0.1554l-0.181 0.0193 -0.0195 0.0938z"/>
   <circle id="label.D.sensitive.area" class="fil8 str6" cx="36.6634" cy="31.7315" r="1.5" opacity="0"/>
  </g>
  <g id="vertex.C">
   <path id="label.C" class="fil6" d="M57.8922 32.2487c-0.1779,0.3233 -0.3428,0.5368 -0.7405,0.5368 -0.3751,0 -0.6435,-0.2425 -0.6435,-0.7404 0.0001,-0.2911 0.0776,-0.6499 0.2328,-0.9086 0.1617,-0.2717 0.4171,-0.4592 0.7631,-0.4592 0.4043,0 0.5432,0.1908 0.5271,0.5433l0.0971 -0.0002 0.1163 -0.4849c-0.1843,-0.1165 -0.4883,-0.1713 -0.7146,-0.1713 -0.6079,-0.0002 -0.9603,0.2845 -1.1479,0.5884 -0.1778,0.2877 -0.2199,0.5853 -0.2199,0.8084 0.0001,0.4266 0.2102,0.9377 1.0121,0.9377 0.2297,-0.0001 0.4494,-0.0323 0.6564,-0.1358l0.1584 -0.5142 -0.0969 0z"/>
   <circle id="label.C.sensitive.area" class="fil8 str6" cx="54.6634" cy="31.7315" r="1.5" opacity="0"/>
  </g>
  <g id="vertex.B">
   <path id="label.B" class="fil6" d="M1.9665 31.5893l0.1714 -0.7503c0.0226,-0.0968 0.0387,-0.113 0.2554,-0.113 0.2716,-0.0001 0.4236,0.1358 0.4236,0.3622 0,0.1648 -0.0776,0.291 -0.1908,0.3815 -0.1067,0.0807 -0.2749,0.1197 -0.4495,0.1197l-0.2101 -0.0001zm0.1034 0.1131c0.3202,0 0.6015,0.0907 0.6015,0.4593 0,0.2877 -0.1747,0.5755 -0.6079,0.5755 -0.3201,-0.0001 -0.3331,-0.0808 -0.304,-0.2069l0.1844 -0.8279 0.126 0zm-0.9699 1.148l0.9829 0c0.7825,0 0.9377,-0.4009 0.9377,-0.6693 0,-0.3396 -0.2522,-0.4883 -0.4883,-0.5335l0.0033 -0.0099c0.4301,-0.0517 0.6111,-0.2908 0.6111,-0.5366 0,-0.1682 -0.0679,-0.3007 -0.2037,-0.3815 -0.1422,-0.0873 -0.3525,-0.11 -0.5853,-0.1067l-0.7792 -0.0001 -0.0194 0.0937 0.1907 0.0194c0.0745,0.0066 0.0938,0.0454 0.0679,0.1553l-0.3815 1.7007c-0.0226,0.1068 -0.0582,0.1456 -0.1358,0.1553l-0.1811 0.0193 -0.0193 0.0939z"/>
   <circle id="label.B.sensitive.area" class="fil8 str6" cx="4.6634" cy="31.7315" r="1.5" opacity="0"/>
  </g>
  <g id="vertex.A">
   <path id="label.A" class="fil6" d="M37.7449 6.3103l0.0194 -0.0939 -0.1228 -0.0097c-0.1003,-0.0097 -0.1133,-0.0549 -0.1295,-0.1874l-0.2392 -1.9466 -0.2295 0 -0.5432 0.9539c-0.1649,0.2877 -0.4334,0.7695 -0.553,0.9636 -0.1035,0.1681 -0.1585,0.2037 -0.2587,0.2134l-0.1067 0.0128 -0.0193 0.0939 0.7274 0 0.0195 -0.0939 -0.1778 -0.0161c-0.0647,-0.0065 -0.0713,-0.0517 -0.0421,-0.1196 0.1067,-0.207 0.2133,-0.4171 0.333,-0.6338l0.7243 0 0.0744 0.6272c0.0097,0.0939 -0.0162,0.1198 -0.0809,0.1262l-0.1713 0.0161 -0.0194 0.0939 0.7954 0zm-0.6143 -0.9863l-0.6435 0c0.1714,-0.32 0.3492,-0.6369 0.5238,-0.9506l0.0065 -0.0001 0.1132 0.9507z"/>
   <circle id="label.A.sensitive.area" class="fil8 str6" cx="36.6634" cy="7.7315" r="1.5" opacity="0"/>
  </g>
 </g>
</svg>
