<?xml version="1.0" encoding="UTF-8"?>
<!DOCTYPE svg PUBLIC "-//W3C//DTD SVG 1.1//EN" "http://www.w3.org/Graphics/SVG/1.1/DTD/svg11.dtd">
<!-- Creator: CorelDRAW -->
<svg xmlns="http://www.w3.org/2000/svg" xml:space="preserve" width="100%" height="100%" style="shape-rendering:geometricPrecision; text-rendering:geometricPrecision; image-rendering:optimizeQuality; fill-rule:evenodd; clip-rule:evenodd"
viewBox="0 0 35 5"
 xmlns:xlink="http://www.w3.org/1999/xlink">
 <defs>
  <style type="text/css">
   <![CDATA[
    .str0 {stroke:#1F1A17;stroke-width:0.07055;stroke-linecap:round}
    .fil1 {fill:none}
    .fil2 {fill:#1F1A17}
    .fil3 {fill:#DA251D}
    .fil0 {fill:#1F1A17;fill-rule:nonzero}
    .fnt1 {font-weight:normal;font-size:0.84667;font-family:'Times New Roman'}
    .fnt0 {font-weight:bold;font-size:0.84667;font-family:'Times New Roman'}
   ]]>
  </style>
    
    <!-- A régua graduada e as leituras -->
    <g id="rule.def">
      <path class="fil0" d="M-13.5 -0.07054l0 0.14112 -0.00363 -9e-005 -0.00358 -0.00027 -0.00353 -0.00045 -0.00348 -0.00062 -0.00341 -0.00079 -0.00335 -0.00095 -0.00328 -0.00111 -0.0032 -0.00127 -0.00313 -0.00141 -0.00304 -0.00156 -0.00295 -0.0017 -0.00287 -0.00183 -0.00276 -0.00197 -0.00267 -0.0021 -0.00256 -0.00221 -0.00245 -0.00234 -0.00234 -0.00245 -0.00221 -0.00256 -0.0021 -0.00267 -0.00197 -0.00276 -0.00183 -0.00287 -0.0017 -0.00295 -0.00156 -0.00304 -0.00141 -0.00313 -0.00127 -0.0032 -0.00111 -0.00328 -0.00095 -0.00335 -0.00079 -0.00341 -0.00062 -0.00348 -0.00045 -0.00353 -0.00027 -0.00358 -9e-005 -0.00363 9e-005 -0.00363 0.00027 -0.00358 0.00045 -0.00353 0.00062 -0.00348 0.00079 -0.00341 0.00095 -0.00335 0.00111 -0.00328 0.00127 -0.0032 0.00141 -0.00313 0.00156 -0.00304 0.0017 -0.00295 0.00183 -0.00287 0.00197 -0.00276 0.0021 -0.00267 0.00221 -0.00256 0.00234 -0.00245 0.00245 -0.00234 0.00256 -0.00221 0.00267 -0.0021 0.00276 -0.00197 0.00287 -0.00183 0.00295 -0.0017 0.00304 -0.00156 0.00313 -0.00141 0.0032 -0.00127 0.00328 -0.00111 0.00335 -0.00095 0.00341 -0.00079 0.00348 -0.00062 0.00353 -0.00045 0.00358 -0.00027 0.00363 -9e-005zm26.5035 0.14112l-26.5035 0 0 -0.14112 26.5035 0 0 0.14112zm0.49646 -0.07056l-0.98784 0.42336 0.01282 -0.02646 0.01199 -0.02646 0.01116 -0.02646 0.01034 -0.02646 0.0095 -0.02646 0.00869 -0.02646 0.00785 -0.02646 0.00703 -0.02646 0.0062 -0.02646 0.00538 -0.02646 0.00454 -0.02646 0.00373 -0.02646 0.00289 -0.02646 0.00207 -0.02646 0.00124 -0.02646 0.00041 -0.02646 -0.00041 -0.02646 -0.00124 -0.02646 -0.00207 -0.02646 -0.00289 -0.02646 -0.00373 -0.02646 -0.00454 -0.02646 -0.00538 -0.02646 -0.0062 -0.02646 -0.00703 -0.02646 -0.00785 -0.02646 -0.00869 -0.02646 -0.0095 -0.02646 -0.01034 -0.02646 -0.01116 -0.02646 -0.01199 -0.02646 -0.01282 -0.02646 0 0 0.98784 0.42336zm-0.49646 0.07056l0 -0.14112 0.00363 9e-005 0.00358 0.00027 0.00353 0.00045 0.00348 0.00062 0.00341 0.00079 0.00335 0.00095 0.00328 0.00111 0.0032 0.00127 0.00313 0.00141 0.00304 0.00156 0.00295 0.0017 0.00287 0.00183 0.00276 0.00197 0.00267 0.0021 0.00256 0.00221 0.00245 0.00234 0.00234 0.00245 0.00221 0.00256 0.0021 0.00267 0.00197 0.00276 0.00183 0.00287 0.0017 0.00295 0.00156 0.00304 0.00141 0.00313 0.00127 0.0032 0.00111 0.00328 0.00095 0.00335 0.00079 0.00341 0.00062 0.00348 0.00045 0.00353 0.00027 0.00358 9e-005 0.00363 -9e-005 0.00363 -0.00027 0.00358 -0.00045 0.00353 -0.00062 0.00348 -0.00079 0.00341 -0.00095 0.00335 -0.00111 0.00328 -0.00127 0.0032 -0.00141 0.00313 -0.00156 0.00304 -0.0017 0.00295 -0.00183 0.00287 -0.00197 0.00276 -0.0021 0.00267 -0.00221 0.00256 -0.00234 0.00245 -0.00245 0.00234 -0.00256 0.00221 -0.00267 0.0021 -0.00276 0.00197 -0.00287 0.00183 -0.00295 0.0017 -0.00304 0.00156 -0.00313 0.00141 -0.0032 0.00127 -0.00328 0.00111 -0.00335 0.00095 -0.00341 0.00079 -0.00348 0.00062 -0.00353 0.00045 -0.00358 0.00027 -0.00363 9e-005z"/>
      <path class="fil1 str0" d="M0 0.35802l0 -0.358m11.0001 0.298l0 -0.258m-2.00002 0.25l0 -0.258m-2.00002 0.25l0 -0.258m-2.00002 0.25l0 -0.258m-2.00002 0.25l0 -0.258m-16 0.25l0 -0.258m1.99999 0.258l0 -0.258m1.99999 0.258l0 -0.258m1.99999 0.258l0 -0.258m1.99999 0.258l0 -0.258m1.99999 0.258l0 -0.258m1.99999 0.258l0 -0.258m1.99999 0.258l0 -0.258m11.0001 0.406l0 -0.358m-2.00002 0.35l0 -0.358m-2.00002 0.35l0 -0.358m-2.00002 0.35l0 -0.358m-2.00002 0.35l0 -0.358m-2.00002 0.35l0 -0.358m-14 0.35l0 -0.358m1.99999 0.358l0 -0.358m1.99999 0.358l0 -0.358m1.99999 0.358l0 -0.358m1.99999 0.358l0 -0.358m1.99999 0.358l0 -0.358"/>
      <text id="negative.label.sample" x="-12" y="1.28919" text-anchor="middle" class="fil3 fnt1">-6</text>
      <text x="-10" y="1.28919" text-anchor="middle" class="fil3 fnt1">-5</text>
      <text x="-8"  y="1.29907" text-anchor="middle" class="fil3 fnt1">-4</text>
      <text x="-6"  y="1.28919" text-anchor="middle" class="fil3 fnt1">-3</text>
      <text x="-4"  y="1.29907" text-anchor="middle" class="fil3 fnt1">-2</text>
      <text x="-2"  y="1.29907" text-anchor="middle" class="fil3 fnt1">-1</text>
      <text x="0"   y="1.28919" text-anchor="middle" class="fil2 fnt0">0</text>
      <text x="2"   y="1.29907" text-anchor="middle" class="fil2 fnt1">1</text>
      <text x="4"   y="1.29907" text-anchor="middle" class="fil2 fnt1">2</text>
      <text x="6"   y="1.28919" text-anchor="middle" class="fil2 fnt1">3</text>
      <text x="8"   y="1.29907" text-anchor="middle" class="fil2 fnt1">4</text>
      <text x="10"  y="1.28919" text-anchor="middle" class="fil2 fnt1">5</text>
      <text id="positive.label.sample" x="12"  y="1.28919" text-anchor="middle" class="fil2 fnt1">6</text>      
    </g>
    
    <!-- A imagem da bicicleta -->
    <image id="bike.def" xlink:href="bike.jpg" x="-1.5" y="-3" width="3" height="3"/>
    
    <!-- O cursor que aponta para a coordenada da bicicleta na régua -->
    <path id="bug.def" d="M0,0 L-0.3,-0.5 L0,-0.4 L0.3,-0.5 z" fill="black"/>
    
    <!-- O grupo de elementos que se move junto com a bicicleta (sujeitos ao arraste pelo mouse) -->
    <g id="bike.group.def">
      <!-- A bicicleta -->
      <use xlink:href="#bike.def" x="0" y="0"/>
      
      <!-- O cursor -->
      <use xlink:href="#bug.def" x="0" y="0"/>
      
      <!-- O rótulo da coordenada -->
      <text id="coordinate.label" x="0" y="-3" text-anchor="middle" class="fil2 fnt1">0</text>        
    </g>    
  </defs>
 
  <!-- O retângulo no fundo da cena, utilizado apenas para melhorar a resposta aos eventos do mouse -->
  <rect id="background" x="-10" y="-10" width="50" height="50" fill="rgb(236,233,216)"/>
  
  <!-- A régua (graduada) -->
  <use id="rule" xlink:href="#rule.def" x="17.5" y="3.5"/>
  
  <!-- O grupo da bicicleta -->
  <use id="bike.group" xlink:href="#bike.group.def" x="17.5" y="3.4"/>
  
</svg>
